<?xml version="1.0" encoding="utf-8" standalone="no"?>
<!DOCTYPE svg PUBLIC "-//W3C//DTD SVG 1.1//EN"
  "http://www.w3.org/Graphics/SVG/1.1/DTD/svg11.dtd">
<svg xmlns:xlink="http://www.w3.org/1999/xlink" width="435.500046pt" height="324.513pt" viewBox="0 0 435.500046 324.513" xmlns="http://www.w3.org/2000/svg" version="1.1">
 <metadata>
  <rdf:RDF xmlns:dc="http://purl.org/dc/elements/1.1/" xmlns:cc="http://creativecommons.org/ns#" xmlns:rdf="http://www.w3.org/1999/02/22-rdf-syntax-ns#">
   <cc:Work>
    <dc:type rdf:resource="http://purl.org/dc/dcmitype/StillImage"/>
    <dc:date>2025-05-16T15:29:23.063729</dc:date>
    <dc:format>image/svg+xml</dc:format>
    <dc:creator>
     <cc:Agent>
      <dc:title>Matplotlib v3.10.3, https://matplotlib.org/</dc:title>
     </cc:Agent>
    </dc:creator>
   </cc:Work>
  </rdf:RDF>
 </metadata>
 <defs>
  <style type="text/css">*{stroke-linejoin: round; stroke-linecap: butt}</style>
 </defs>
 <g id="figure_1">
  <g id="patch_1">
   <path d="M 0 324.513 
L 435.500046 324.513 
L 435.500046 0 
L 0 0 
z
" style="fill: #ffffff"/>
  </g>
  <g id="axes_1">
   <g id="patch_2">
    <path d="M 59.054 279.04 
L 431.861727 279.04 
L 431.861727 0 
L 59.054 0 
z
" style="fill: #ffffff"/>
   </g>
   <g id="FillBetweenPolyCollection_1">
    <defs>
     <path id="m1bc386b2b1" d="M 75.999806 -67.762708 
L 75.999806 -58.156636 
L 160.728835 -116.533396 
L 245.457864 -273.377582 
L 270.963843 -292.711865 
L 304.680913 -304.312428 
L 330.186893 -308.179328 
L 355.692872 -310.101905 
L 389.409942 -311.252749 
L 414.915921 -311.631801 
L 414.915921 -311.780809 
L 414.915921 -311.780809 
L 389.409942 -311.539228 
L 355.692872 -310.809283 
L 330.186893 -309.579887 
L 304.680913 -307.113547 
L 270.963843 -299.714625 
L 245.457864 -287.383101 
L 160.728835 -158.656401 
L 75.999806 -67.762708 
z
" style="stroke: #d55e00; stroke-opacity: 0.2"/>
    </defs>
    <g clip-path="url(#pd067269258)">
     <use xlink:href="#m1bc386b2b1" x="0" y="324.513" style="fill: #d55e00; fill-opacity: 0.2; stroke: #d55e00; stroke-opacity: 0.2"/>
    </g>
   </g>
   <g id="FillBetweenPolyCollection_2">
    <defs>
     <path id="ma4bec5a8a2" d="M 75.999806 -232.192477 
L 75.999806 -195.715788 
L 160.728835 -267.27067 
L 245.457864 -298.275171 
L 270.963843 -303.636494 
L 304.680913 -308.322978 
L 330.186893 -310.117881 
L 355.692872 -311.025267 
L 389.409942 -311.559135 
L 414.915921 -311.734679 
L 414.915921 -311.829364 
L 414.915921 -311.829364 
L 389.409942 -311.710059 
L 355.692872 -311.355314 
L 330.186893 -310.734408 
L 304.680913 -309.497444 
L 270.963843 -305.988516 
L 245.457864 -301.424563 
L 160.728835 -275.366978 
L 75.999806 -232.192477 
z
" style="stroke: #cc78bc; stroke-opacity: 0.2"/>
    </defs>
    <g clip-path="url(#pd067269258)">
     <use xlink:href="#ma4bec5a8a2" x="0" y="324.513" style="fill: #cc78bc; fill-opacity: 0.2; stroke: #cc78bc; stroke-opacity: 0.2"/>
    </g>
   </g>
   <g id="FillBetweenPolyCollection_3">
    <defs>
     <path id="m3325a18a08" d="M 75.999806 -110.487192 
L 75.999806 -81.140655 
L 160.728835 -156.540651 
L 245.457864 -246.018463 
L 270.963843 -267.472477 
L 304.680913 -289.091846 
L 330.186893 -299.976641 
L 355.692872 -305.981026 
L 389.409942 -309.507045 
L 414.915921 -310.69563 
L 414.915921 -311.565744 
L 414.915921 -311.565744 
L 389.409942 -311.191581 
L 355.692872 -310.086026 
L 330.186893 -308.176551 
L 304.680913 -304.349113 
L 270.963843 -293.218083 
L 245.457864 -276.026682 
L 160.728835 -180.233796 
L 75.999806 -110.487192 
z
" style="stroke: #0173b2; stroke-opacity: 0.2"/>
    </defs>
    <g clip-path="url(#pd067269258)">
     <use xlink:href="#m3325a18a08" x="0" y="324.513" style="fill: #0173b2; fill-opacity: 0.2; stroke: #0173b2; stroke-opacity: 0.2"/>
    </g>
   </g>
   <g id="FillBetweenPolyCollection_4">
    <defs>
     <path id="m289bfdf24b" d="M 75.999806 -75.086527 
L 75.999806 -62.017242 
L 160.728835 -80.679563 
L 245.457864 -190.016449 
L 270.963843 -234.828827 
L 304.680913 -277.886762 
L 330.186893 -294.943469 
L 355.692872 -303.434198 
L 389.409942 -308.457809 
L 414.915921 -310.145473 
L 414.915921 -310.372036 
L 414.915921 -310.372036 
L 389.409942 -308.888446 
L 355.692872 -304.478938 
L 330.186893 -297.031265 
L 304.680913 -282.049214 
L 270.963843 -242.136057 
L 245.457864 -199.202315 
L 160.728835 -87.771674 
L 75.999806 -75.086527 
z
" style="stroke: #de8f05; stroke-opacity: 0.2"/>
    </defs>
    <g clip-path="url(#pd067269258)">
     <use xlink:href="#m289bfdf24b" x="0" y="324.513" style="fill: #de8f05; fill-opacity: 0.2; stroke: #de8f05; stroke-opacity: 0.2"/>
    </g>
   </g>
   <g id="FillBetweenPolyCollection_5">
    <defs>
     <path id="mee60c28373" d="M 75.999806 -83.307153 
L 75.999806 -69.175207 
L 160.728835 -105.671573 
L 245.457864 -236.801192 
L 270.963843 -268.386452 
L 304.680913 -294.162955 
L 330.186893 -303.092496 
L 355.692872 -307.538944 
L 389.409942 -310.148856 
L 414.915921 -311.016741 
L 414.915921 -311.163051 
L 414.915921 -311.163051 
L 389.409942 -310.4193 
L 355.692872 -308.19986 
L 330.186893 -304.409009 
L 304.680913 -296.78855 
L 270.963843 -274.300983 
L 245.457864 -244.708717 
L 160.728835 -120.703528 
L 75.999806 -83.307153 
z
" style="stroke: #029e73; stroke-opacity: 0.2"/>
    </defs>
    <g clip-path="url(#pd067269258)">
     <use xlink:href="#mee60c28373" x="0" y="324.513" style="fill: #029e73; fill-opacity: 0.2; stroke: #029e73; stroke-opacity: 0.2"/>
    </g>
   </g>
   <g id="matplotlib.axis_1">
    <g id="xtick_1">
     <g id="line2d_1">
      <path d="M 160.728835 279.04 
L 160.728835 0 
" clip-path="url(#pd067269258)" style="fill: none; stroke: #b0b0b0; stroke-opacity: 0.2; stroke-width: 0.8; stroke-linecap: square"/>
     </g>
     <g id="line2d_2">
      <defs>
       <path id="m76f72f9961" d="M 0 0 
L 0 0.1 
" style="stroke: #000000; stroke-width: 0.1"/>
      </defs>
      <g>
       <use xlink:href="#m76f72f9961" x="160.728835" y="289.04" style="stroke: #000000; stroke-width: 0.1"/>
      </g>
     </g>
     <g id="text_1">
      <!-- 0.1% -->
      <g transform="translate(142.43746 303.58175) scale(0.144 -0.144)">
       <defs>
        <path id="DejaVuSans-30" d="M 2034 4250 
Q 1547 4250 1301 3770 
Q 1056 3291 1056 2328 
Q 1056 1369 1301 889 
Q 1547 409 2034 409 
Q 2525 409 2770 889 
Q 3016 1369 3016 2328 
Q 3016 3291 2770 3770 
Q 2525 4250 2034 4250 
z
M 2034 4750 
Q 2819 4750 3233 4129 
Q 3647 3509 3647 2328 
Q 3647 1150 3233 529 
Q 2819 -91 2034 -91 
Q 1250 -91 836 529 
Q 422 1150 422 2328 
Q 422 3509 836 4129 
Q 1250 4750 2034 4750 
z
" transform="scale(0.015625)"/>
        <path id="DejaVuSans-2e" d="M 684 794 
L 1344 794 
L 1344 0 
L 684 0 
L 684 794 
z
" transform="scale(0.015625)"/>
        <path id="DejaVuSans-31" d="M 794 531 
L 1825 531 
L 1825 4091 
L 703 3866 
L 703 4441 
L 1819 4666 
L 2450 4666 
L 2450 531 
L 3481 531 
L 3481 0 
L 794 0 
L 794 531 
z
" transform="scale(0.015625)"/>
        <path id="DejaVuSans-25" d="M 4653 2053 
Q 4381 2053 4226 1822 
Q 4072 1591 4072 1178 
Q 4072 772 4226 539 
Q 4381 306 4653 306 
Q 4919 306 5073 539 
Q 5228 772 5228 1178 
Q 5228 1588 5073 1820 
Q 4919 2053 4653 2053 
z
M 4653 2450 
Q 5147 2450 5437 2106 
Q 5728 1763 5728 1178 
Q 5728 594 5436 251 
Q 5144 -91 4653 -91 
Q 4153 -91 3862 251 
Q 3572 594 3572 1178 
Q 3572 1766 3864 2108 
Q 4156 2450 4653 2450 
z
M 1428 4353 
Q 1159 4353 1004 4120 
Q 850 3888 850 3481 
Q 850 3069 1003 2837 
Q 1156 2606 1428 2606 
Q 1700 2606 1854 2837 
Q 2009 3069 2009 3481 
Q 2009 3884 1853 4118 
Q 1697 4353 1428 4353 
z
M 4250 4750 
L 4750 4750 
L 1831 -91 
L 1331 -91 
L 4250 4750 
z
M 1428 4750 
Q 1922 4750 2215 4408 
Q 2509 4066 2509 3481 
Q 2509 2891 2217 2550 
Q 1925 2209 1428 2209 
Q 931 2209 642 2551 
Q 353 2894 353 3481 
Q 353 4063 643 4406 
Q 934 4750 1428 4750 
z
" transform="scale(0.015625)"/>
       </defs>
       <use xlink:href="#DejaVuSans-30"/>
       <use xlink:href="#DejaVuSans-2e" transform="translate(63.623047 0)"/>
       <use xlink:href="#DejaVuSans-31" transform="translate(95.410156 0)"/>
       <use xlink:href="#DejaVuSans-25" transform="translate(159.033203 0)"/>
      </g>
     </g>
    </g>
    <g id="xtick_2">
     <g id="line2d_3">
      <path d="M 245.457864 279.04 
L 245.457864 0 
" clip-path="url(#pd067269258)" style="fill: none; stroke: #b0b0b0; stroke-opacity: 0.2; stroke-width: 0.8; stroke-linecap: square"/>
     </g>
     <g id="line2d_4">
      <g>
       <use xlink:href="#m76f72f9961" x="245.457864" y="289.04" style="stroke: #000000; stroke-width: 0.1"/>
      </g>
     </g>
     <g id="text_2">
      <!-- 1% -->
      <g transform="translate(234.035739 303.58175) scale(0.144 -0.144)">
       <use xlink:href="#DejaVuSans-31"/>
       <use xlink:href="#DejaVuSans-25" transform="translate(63.623047 0)"/>
      </g>
     </g>
    </g>
    <g id="xtick_3">
     <g id="line2d_5">
      <path d="M 330.186893 279.04 
L 330.186893 0 
" clip-path="url(#pd067269258)" style="fill: none; stroke: #b0b0b0; stroke-opacity: 0.2; stroke-width: 0.8; stroke-linecap: square"/>
     </g>
     <g id="line2d_6">
      <g>
       <use xlink:href="#m76f72f9961" x="330.186893" y="289.04" style="stroke: #000000; stroke-width: 0.1"/>
      </g>
     </g>
     <g id="text_3">
      <!-- 10% -->
      <g transform="translate(314.183768 303.58175) scale(0.144 -0.144)">
       <use xlink:href="#DejaVuSans-31"/>
       <use xlink:href="#DejaVuSans-30" transform="translate(63.623047 0)"/>
       <use xlink:href="#DejaVuSans-25" transform="translate(127.246094 0)"/>
      </g>
     </g>
    </g>
    <g id="xtick_4">
     <g id="line2d_7">
      <path d="M 414.915921 279.04 
L 414.915921 0 
" clip-path="url(#pd067269258)" style="fill: none; stroke: #b0b0b0; stroke-opacity: 0.2; stroke-width: 0.8; stroke-linecap: square"/>
     </g>
     <g id="line2d_8">
      <g>
       <use xlink:href="#m76f72f9961" x="414.915921" y="289.04" style="stroke: #000000; stroke-width: 0.1"/>
      </g>
     </g>
     <g id="text_4">
      <!-- 100% -->
      <g transform="translate(394.331796 303.58175) scale(0.144 -0.144)">
       <use xlink:href="#DejaVuSans-31"/>
       <use xlink:href="#DejaVuSans-30" transform="translate(63.623047 0)"/>
       <use xlink:href="#DejaVuSans-30" transform="translate(127.246094 0)"/>
       <use xlink:href="#DejaVuSans-25" transform="translate(190.869141 0)"/>
      </g>
     </g>
    </g>
    <g id="xtick_5">
     <g id="line2d_9">
      <defs>
       <path id="m25303daabd" d="M 0 0 
L 0 2 
" style="stroke: #000000; stroke-width: 0.6"/>
      </defs>
      <g>
       <use xlink:href="#m25303daabd" x="62.875113" y="289.04" style="stroke: #000000; stroke-width: 0.6"/>
      </g>
     </g>
    </g>
    <g id="xtick_6">
     <g id="line2d_10">
      <g>
       <use xlink:href="#m25303daabd" x="67.788714" y="289.04" style="stroke: #000000; stroke-width: 0.6"/>
      </g>
     </g>
    </g>
    <g id="xtick_7">
     <g id="line2d_11">
      <g>
       <use xlink:href="#m25303daabd" x="72.122818" y="289.04" style="stroke: #000000; stroke-width: 0.6"/>
      </g>
     </g>
    </g>
    <g id="xtick_8">
     <g id="line2d_12">
      <g>
       <use xlink:href="#m25303daabd" x="101.505785" y="289.04" style="stroke: #000000; stroke-width: 0.6"/>
      </g>
     </g>
    </g>
    <g id="xtick_9">
     <g id="line2d_13">
      <g>
       <use xlink:href="#m25303daabd" x="116.425826" y="289.04" style="stroke: #000000; stroke-width: 0.6"/>
      </g>
     </g>
    </g>
    <g id="xtick_10">
     <g id="line2d_14">
      <g>
       <use xlink:href="#m25303daabd" x="127.011764" y="289.04" style="stroke: #000000; stroke-width: 0.6"/>
      </g>
     </g>
    </g>
    <g id="xtick_11">
     <g id="line2d_15">
      <g>
       <use xlink:href="#m25303daabd" x="135.222856" y="289.04" style="stroke: #000000; stroke-width: 0.6"/>
      </g>
     </g>
    </g>
    <g id="xtick_12">
     <g id="line2d_16">
      <g>
       <use xlink:href="#m25303daabd" x="141.931806" y="289.04" style="stroke: #000000; stroke-width: 0.6"/>
      </g>
     </g>
    </g>
    <g id="xtick_13">
     <g id="line2d_17">
      <g>
       <use xlink:href="#m25303daabd" x="147.604142" y="289.04" style="stroke: #000000; stroke-width: 0.6"/>
      </g>
     </g>
    </g>
    <g id="xtick_14">
     <g id="line2d_18">
      <g>
       <use xlink:href="#m25303daabd" x="152.517743" y="289.04" style="stroke: #000000; stroke-width: 0.6"/>
      </g>
     </g>
    </g>
    <g id="xtick_15">
     <g id="line2d_19">
      <g>
       <use xlink:href="#m25303daabd" x="156.851847" y="289.04" style="stroke: #000000; stroke-width: 0.6"/>
      </g>
     </g>
    </g>
    <g id="xtick_16">
     <g id="line2d_20">
      <g>
       <use xlink:href="#m25303daabd" x="186.234814" y="289.04" style="stroke: #000000; stroke-width: 0.6"/>
      </g>
     </g>
    </g>
    <g id="xtick_17">
     <g id="line2d_21">
      <g>
       <use xlink:href="#m25303daabd" x="201.154855" y="289.04" style="stroke: #000000; stroke-width: 0.6"/>
      </g>
     </g>
    </g>
    <g id="xtick_18">
     <g id="line2d_22">
      <g>
       <use xlink:href="#m25303daabd" x="211.740793" y="289.04" style="stroke: #000000; stroke-width: 0.6"/>
      </g>
     </g>
    </g>
    <g id="xtick_19">
     <g id="line2d_23">
      <g>
       <use xlink:href="#m25303daabd" x="219.951884" y="289.04" style="stroke: #000000; stroke-width: 0.6"/>
      </g>
     </g>
    </g>
    <g id="xtick_20">
     <g id="line2d_24">
      <g>
       <use xlink:href="#m25303daabd" x="226.660835" y="289.04" style="stroke: #000000; stroke-width: 0.6"/>
      </g>
     </g>
    </g>
    <g id="xtick_21">
     <g id="line2d_25">
      <g>
       <use xlink:href="#m25303daabd" x="232.333171" y="289.04" style="stroke: #000000; stroke-width: 0.6"/>
      </g>
     </g>
    </g>
    <g id="xtick_22">
     <g id="line2d_26">
      <g>
       <use xlink:href="#m25303daabd" x="237.246772" y="289.04" style="stroke: #000000; stroke-width: 0.6"/>
      </g>
     </g>
    </g>
    <g id="xtick_23">
     <g id="line2d_27">
      <g>
       <use xlink:href="#m25303daabd" x="241.580876" y="289.04" style="stroke: #000000; stroke-width: 0.6"/>
      </g>
     </g>
    </g>
    <g id="xtick_24">
     <g id="line2d_28">
      <g>
       <use xlink:href="#m25303daabd" x="270.963843" y="289.04" style="stroke: #000000; stroke-width: 0.6"/>
      </g>
     </g>
    </g>
    <g id="xtick_25">
     <g id="line2d_29">
      <g>
       <use xlink:href="#m25303daabd" x="285.883884" y="289.04" style="stroke: #000000; stroke-width: 0.6"/>
      </g>
     </g>
    </g>
    <g id="xtick_26">
     <g id="line2d_30">
      <g>
       <use xlink:href="#m25303daabd" x="296.469822" y="289.04" style="stroke: #000000; stroke-width: 0.6"/>
      </g>
     </g>
    </g>
    <g id="xtick_27">
     <g id="line2d_31">
      <g>
       <use xlink:href="#m25303daabd" x="304.680913" y="289.04" style="stroke: #000000; stroke-width: 0.6"/>
      </g>
     </g>
    </g>
    <g id="xtick_28">
     <g id="line2d_32">
      <g>
       <use xlink:href="#m25303daabd" x="311.389863" y="289.04" style="stroke: #000000; stroke-width: 0.6"/>
      </g>
     </g>
    </g>
    <g id="xtick_29">
     <g id="line2d_33">
      <g>
       <use xlink:href="#m25303daabd" x="317.0622" y="289.04" style="stroke: #000000; stroke-width: 0.6"/>
      </g>
     </g>
    </g>
    <g id="xtick_30">
     <g id="line2d_34">
      <g>
       <use xlink:href="#m25303daabd" x="321.975801" y="289.04" style="stroke: #000000; stroke-width: 0.6"/>
      </g>
     </g>
    </g>
    <g id="xtick_31">
     <g id="line2d_35">
      <g>
       <use xlink:href="#m25303daabd" x="326.309905" y="289.04" style="stroke: #000000; stroke-width: 0.6"/>
      </g>
     </g>
    </g>
    <g id="xtick_32">
     <g id="line2d_36">
      <g>
       <use xlink:href="#m25303daabd" x="355.692872" y="289.04" style="stroke: #000000; stroke-width: 0.6"/>
      </g>
     </g>
    </g>
    <g id="xtick_33">
     <g id="line2d_37">
      <g>
       <use xlink:href="#m25303daabd" x="370.612913" y="289.04" style="stroke: #000000; stroke-width: 0.6"/>
      </g>
     </g>
    </g>
    <g id="xtick_34">
     <g id="line2d_38">
      <g>
       <use xlink:href="#m25303daabd" x="381.198851" y="289.04" style="stroke: #000000; stroke-width: 0.6"/>
      </g>
     </g>
    </g>
    <g id="xtick_35">
     <g id="line2d_39">
      <g>
       <use xlink:href="#m25303daabd" x="389.409942" y="289.04" style="stroke: #000000; stroke-width: 0.6"/>
      </g>
     </g>
    </g>
    <g id="xtick_36">
     <g id="line2d_40">
      <g>
       <use xlink:href="#m25303daabd" x="396.118892" y="289.04" style="stroke: #000000; stroke-width: 0.6"/>
      </g>
     </g>
    </g>
    <g id="xtick_37">
     <g id="line2d_41">
      <g>
       <use xlink:href="#m25303daabd" x="401.791229" y="289.04" style="stroke: #000000; stroke-width: 0.6"/>
      </g>
     </g>
    </g>
    <g id="xtick_38">
     <g id="line2d_42">
      <g>
       <use xlink:href="#m25303daabd" x="406.70483" y="289.04" style="stroke: #000000; stroke-width: 0.6"/>
      </g>
     </g>
    </g>
    <g id="xtick_39">
     <g id="line2d_43">
      <g>
       <use xlink:href="#m25303daabd" x="411.038934" y="289.04" style="stroke: #000000; stroke-width: 0.6"/>
      </g>
     </g>
    </g>
    <g id="text_5">
     <!-- $\alpha$ -->
     <g transform="translate(240.705864 321.51825) scale(0.144 -0.144)">
      <defs>
       <path id="DejaVuSans-Oblique-3b1" d="M 2619 1628 
L 2622 2350 
Q 2625 3088 2069 3091 
Q 1653 3094 1394 2747 
Q 1069 2319 959 1747 
Q 825 1059 994 731 
Q 1169 397 1547 397 
Q 1966 397 2319 1063 
L 2619 1628 
z
M 2166 3578 
Q 3141 3594 3128 2584 
Q 3128 2584 3616 3500 
L 4128 3500 
L 3119 1603 
L 3109 919 
Q 3109 766 3194 638 
Q 3291 488 3391 488 
L 3669 488 
L 3575 0 
L 3228 0 
Q 2934 0 2722 263 
Q 2622 394 2619 669 
Q 2416 334 2066 50 
Q 1900 -81 1453 -78 
Q 722 -72 456 397 
Q 184 884 353 1747 
Q 534 2675 1009 3097 
Q 1544 3569 2166 3578 
z
" transform="scale(0.015625)"/>
      </defs>
      <use xlink:href="#DejaVuSans-Oblique-3b1" transform="translate(0 0.84375)"/>
     </g>
    </g>
   </g>
   <g id="matplotlib.axis_2">
    <g id="ytick_1">
     <g id="line2d_44">
      <path d="M 59.054 268.776603 
L 431.861727 268.776603 
" clip-path="url(#pd067269258)" style="fill: none; stroke: #b0b0b0; stroke-opacity: 0.2; stroke-width: 0.8; stroke-linecap: square"/>
     </g>
     <g id="line2d_45">
      <defs>
       <path id="m93d0e8edad" d="M 0 0 
L -0.1 0 
" style="stroke: #000000; stroke-width: 0.1"/>
      </defs>
      <g>
       <use xlink:href="#m93d0e8edad" x="49.054" y="268.776603" style="stroke: #000000; stroke-width: 0.1"/>
      </g>
     </g>
     <g id="text_6">
      <!-- 0 -->
      <g transform="translate(36.292 274.247478) scale(0.144 -0.144)">
       <use xlink:href="#DejaVuSans-30"/>
      </g>
     </g>
    </g>
    <g id="ytick_2">
     <g id="line2d_46">
      <path d="M 59.054 217.514653 
L 431.861727 217.514653 
" clip-path="url(#pd067269258)" style="fill: none; stroke: #b0b0b0; stroke-opacity: 0.2; stroke-width: 0.8; stroke-linecap: square"/>
     </g>
     <g id="line2d_47">
      <g>
       <use xlink:href="#m93d0e8edad" x="49.054" y="217.514653" style="stroke: #000000; stroke-width: 0.1"/>
      </g>
     </g>
     <g id="text_7">
      <!-- 20 -->
      <g transform="translate(27.13 222.985528) scale(0.144 -0.144)">
       <defs>
        <path id="DejaVuSans-32" d="M 1228 531 
L 3431 531 
L 3431 0 
L 469 0 
L 469 531 
Q 828 903 1448 1529 
Q 2069 2156 2228 2338 
Q 2531 2678 2651 2914 
Q 2772 3150 2772 3378 
Q 2772 3750 2511 3984 
Q 2250 4219 1831 4219 
Q 1534 4219 1204 4116 
Q 875 4013 500 3803 
L 500 4441 
Q 881 4594 1212 4672 
Q 1544 4750 1819 4750 
Q 2544 4750 2975 4387 
Q 3406 4025 3406 3419 
Q 3406 3131 3298 2873 
Q 3191 2616 2906 2266 
Q 2828 2175 2409 1742 
Q 1991 1309 1228 531 
z
" transform="scale(0.015625)"/>
       </defs>
       <use xlink:href="#DejaVuSans-32"/>
       <use xlink:href="#DejaVuSans-30" transform="translate(63.623047 0)"/>
      </g>
     </g>
    </g>
    <g id="ytick_3">
     <g id="line2d_48">
      <path d="M 59.054 166.252702 
L 431.861727 166.252702 
" clip-path="url(#pd067269258)" style="fill: none; stroke: #b0b0b0; stroke-opacity: 0.2; stroke-width: 0.8; stroke-linecap: square"/>
     </g>
     <g id="line2d_49">
      <g>
       <use xlink:href="#m93d0e8edad" x="49.054" y="166.252702" style="stroke: #000000; stroke-width: 0.1"/>
      </g>
     </g>
     <g id="text_8">
      <!-- 40 -->
      <g transform="translate(27.13 171.723577) scale(0.144 -0.144)">
       <defs>
        <path id="DejaVuSans-34" d="M 2419 4116 
L 825 1625 
L 2419 1625 
L 2419 4116 
z
M 2253 4666 
L 3047 4666 
L 3047 1625 
L 3713 1625 
L 3713 1100 
L 3047 1100 
L 3047 0 
L 2419 0 
L 2419 1100 
L 313 1100 
L 313 1709 
L 2253 4666 
z
" transform="scale(0.015625)"/>
       </defs>
       <use xlink:href="#DejaVuSans-34"/>
       <use xlink:href="#DejaVuSans-30" transform="translate(63.623047 0)"/>
      </g>
     </g>
    </g>
    <g id="ytick_4">
     <g id="line2d_50">
      <path d="M 59.054 114.990752 
L 431.861727 114.990752 
" clip-path="url(#pd067269258)" style="fill: none; stroke: #b0b0b0; stroke-opacity: 0.2; stroke-width: 0.8; stroke-linecap: square"/>
     </g>
     <g id="line2d_51">
      <g>
       <use xlink:href="#m93d0e8edad" x="49.054" y="114.990752" style="stroke: #000000; stroke-width: 0.1"/>
      </g>
     </g>
     <g id="text_9">
      <!-- 60 -->
      <g transform="translate(27.13 120.461627) scale(0.144 -0.144)">
       <defs>
        <path id="DejaVuSans-36" d="M 2113 2584 
Q 1688 2584 1439 2293 
Q 1191 2003 1191 1497 
Q 1191 994 1439 701 
Q 1688 409 2113 409 
Q 2538 409 2786 701 
Q 3034 994 3034 1497 
Q 3034 2003 2786 2293 
Q 2538 2584 2113 2584 
z
M 3366 4563 
L 3366 3988 
Q 3128 4100 2886 4159 
Q 2644 4219 2406 4219 
Q 1781 4219 1451 3797 
Q 1122 3375 1075 2522 
Q 1259 2794 1537 2939 
Q 1816 3084 2150 3084 
Q 2853 3084 3261 2657 
Q 3669 2231 3669 1497 
Q 3669 778 3244 343 
Q 2819 -91 2113 -91 
Q 1303 -91 875 529 
Q 447 1150 447 2328 
Q 447 3434 972 4092 
Q 1497 4750 2381 4750 
Q 2619 4750 2861 4703 
Q 3103 4656 3366 4563 
z
" transform="scale(0.015625)"/>
       </defs>
       <use xlink:href="#DejaVuSans-36"/>
       <use xlink:href="#DejaVuSans-30" transform="translate(63.623047 0)"/>
      </g>
     </g>
    </g>
    <g id="ytick_5">
     <g id="line2d_52">
      <path d="M 59.054 63.728801 
L 431.861727 63.728801 
" clip-path="url(#pd067269258)" style="fill: none; stroke: #b0b0b0; stroke-opacity: 0.2; stroke-width: 0.8; stroke-linecap: square"/>
     </g>
     <g id="line2d_53">
      <g>
       <use xlink:href="#m93d0e8edad" x="49.054" y="63.728801" style="stroke: #000000; stroke-width: 0.1"/>
      </g>
     </g>
     <g id="text_10">
      <!-- 80 -->
      <g transform="translate(27.13 69.199676) scale(0.144 -0.144)">
       <defs>
        <path id="DejaVuSans-38" d="M 2034 2216 
Q 1584 2216 1326 1975 
Q 1069 1734 1069 1313 
Q 1069 891 1326 650 
Q 1584 409 2034 409 
Q 2484 409 2743 651 
Q 3003 894 3003 1313 
Q 3003 1734 2745 1975 
Q 2488 2216 2034 2216 
z
M 1403 2484 
Q 997 2584 770 2862 
Q 544 3141 544 3541 
Q 544 4100 942 4425 
Q 1341 4750 2034 4750 
Q 2731 4750 3128 4425 
Q 3525 4100 3525 3541 
Q 3525 3141 3298 2862 
Q 3072 2584 2669 2484 
Q 3125 2378 3379 2068 
Q 3634 1759 3634 1313 
Q 3634 634 3220 271 
Q 2806 -91 2034 -91 
Q 1263 -91 848 271 
Q 434 634 434 1313 
Q 434 1759 690 2068 
Q 947 2378 1403 2484 
z
M 1172 3481 
Q 1172 3119 1398 2916 
Q 1625 2713 2034 2713 
Q 2441 2713 2670 2916 
Q 2900 3119 2900 3481 
Q 2900 3844 2670 4047 
Q 2441 4250 2034 4250 
Q 1625 4250 1398 4047 
Q 1172 3844 1172 3481 
z
" transform="scale(0.015625)"/>
       </defs>
       <use xlink:href="#DejaVuSans-38"/>
       <use xlink:href="#DejaVuSans-30" transform="translate(63.623047 0)"/>
      </g>
     </g>
    </g>
    <g id="ytick_6">
     <g id="line2d_54">
      <path d="M 59.054 12.466851 
L 431.861727 12.466851 
" clip-path="url(#pd067269258)" style="fill: none; stroke: #b0b0b0; stroke-opacity: 0.2; stroke-width: 0.8; stroke-linecap: square"/>
     </g>
     <g id="line2d_55">
      <g>
       <use xlink:href="#m93d0e8edad" x="49.054" y="12.466851" style="stroke: #000000; stroke-width: 0.1"/>
      </g>
     </g>
     <g id="text_11">
      <!-- 100 -->
      <g transform="translate(17.968 17.937726) scale(0.144 -0.144)">
       <use xlink:href="#DejaVuSans-31"/>
       <use xlink:href="#DejaVuSans-30" transform="translate(63.623047 0)"/>
       <use xlink:href="#DejaVuSans-30" transform="translate(127.246094 0)"/>
      </g>
     </g>
    </g>
    <g id="text_12">
     <!-- Avg Win Rate % on worst-case $\alpha$% levels -->
     <g transform="translate(10.944 286.904) rotate(-90) scale(0.144 -0.144)">
      <defs>
       <path id="DejaVuSans-41" d="M 2188 4044 
L 1331 1722 
L 3047 1722 
L 2188 4044 
z
M 1831 4666 
L 2547 4666 
L 4325 0 
L 3669 0 
L 3244 1197 
L 1141 1197 
L 716 0 
L 50 0 
L 1831 4666 
z
" transform="scale(0.015625)"/>
       <path id="DejaVuSans-76" d="M 191 3500 
L 800 3500 
L 1894 563 
L 2988 3500 
L 3597 3500 
L 2284 0 
L 1503 0 
L 191 3500 
z
" transform="scale(0.015625)"/>
       <path id="DejaVuSans-67" d="M 2906 1791 
Q 2906 2416 2648 2759 
Q 2391 3103 1925 3103 
Q 1463 3103 1205 2759 
Q 947 2416 947 1791 
Q 947 1169 1205 825 
Q 1463 481 1925 481 
Q 2391 481 2648 825 
Q 2906 1169 2906 1791 
z
M 3481 434 
Q 3481 -459 3084 -895 
Q 2688 -1331 1869 -1331 
Q 1566 -1331 1297 -1286 
Q 1028 -1241 775 -1147 
L 775 -588 
Q 1028 -725 1275 -790 
Q 1522 -856 1778 -856 
Q 2344 -856 2625 -561 
Q 2906 -266 2906 331 
L 2906 616 
Q 2728 306 2450 153 
Q 2172 0 1784 0 
Q 1141 0 747 490 
Q 353 981 353 1791 
Q 353 2603 747 3093 
Q 1141 3584 1784 3584 
Q 2172 3584 2450 3431 
Q 2728 3278 2906 2969 
L 2906 3500 
L 3481 3500 
L 3481 434 
z
" transform="scale(0.015625)"/>
       <path id="DejaVuSans-20" transform="scale(0.015625)"/>
       <path id="DejaVuSans-57" d="M 213 4666 
L 850 4666 
L 1831 722 
L 2809 4666 
L 3519 4666 
L 4500 722 
L 5478 4666 
L 6119 4666 
L 4947 0 
L 4153 0 
L 3169 4050 
L 2175 0 
L 1381 0 
L 213 4666 
z
" transform="scale(0.015625)"/>
       <path id="DejaVuSans-69" d="M 603 3500 
L 1178 3500 
L 1178 0 
L 603 0 
L 603 3500 
z
M 603 4863 
L 1178 4863 
L 1178 4134 
L 603 4134 
L 603 4863 
z
" transform="scale(0.015625)"/>
       <path id="DejaVuSans-6e" d="M 3513 2113 
L 3513 0 
L 2938 0 
L 2938 2094 
Q 2938 2591 2744 2837 
Q 2550 3084 2163 3084 
Q 1697 3084 1428 2787 
Q 1159 2491 1159 1978 
L 1159 0 
L 581 0 
L 581 3500 
L 1159 3500 
L 1159 2956 
Q 1366 3272 1645 3428 
Q 1925 3584 2291 3584 
Q 2894 3584 3203 3211 
Q 3513 2838 3513 2113 
z
" transform="scale(0.015625)"/>
       <path id="DejaVuSans-52" d="M 2841 2188 
Q 3044 2119 3236 1894 
Q 3428 1669 3622 1275 
L 4263 0 
L 3584 0 
L 2988 1197 
Q 2756 1666 2539 1819 
Q 2322 1972 1947 1972 
L 1259 1972 
L 1259 0 
L 628 0 
L 628 4666 
L 2053 4666 
Q 2853 4666 3247 4331 
Q 3641 3997 3641 3322 
Q 3641 2881 3436 2590 
Q 3231 2300 2841 2188 
z
M 1259 4147 
L 1259 2491 
L 2053 2491 
Q 2509 2491 2742 2702 
Q 2975 2913 2975 3322 
Q 2975 3731 2742 3939 
Q 2509 4147 2053 4147 
L 1259 4147 
z
" transform="scale(0.015625)"/>
       <path id="DejaVuSans-61" d="M 2194 1759 
Q 1497 1759 1228 1600 
Q 959 1441 959 1056 
Q 959 750 1161 570 
Q 1363 391 1709 391 
Q 2188 391 2477 730 
Q 2766 1069 2766 1631 
L 2766 1759 
L 2194 1759 
z
M 3341 1997 
L 3341 0 
L 2766 0 
L 2766 531 
Q 2569 213 2275 61 
Q 1981 -91 1556 -91 
Q 1019 -91 701 211 
Q 384 513 384 1019 
Q 384 1609 779 1909 
Q 1175 2209 1959 2209 
L 2766 2209 
L 2766 2266 
Q 2766 2663 2505 2880 
Q 2244 3097 1772 3097 
Q 1472 3097 1187 3025 
Q 903 2953 641 2809 
L 641 3341 
Q 956 3463 1253 3523 
Q 1550 3584 1831 3584 
Q 2591 3584 2966 3190 
Q 3341 2797 3341 1997 
z
" transform="scale(0.015625)"/>
       <path id="DejaVuSans-74" d="M 1172 4494 
L 1172 3500 
L 2356 3500 
L 2356 3053 
L 1172 3053 
L 1172 1153 
Q 1172 725 1289 603 
Q 1406 481 1766 481 
L 2356 481 
L 2356 0 
L 1766 0 
Q 1100 0 847 248 
Q 594 497 594 1153 
L 594 3053 
L 172 3053 
L 172 3500 
L 594 3500 
L 594 4494 
L 1172 4494 
z
" transform="scale(0.015625)"/>
       <path id="DejaVuSans-65" d="M 3597 1894 
L 3597 1613 
L 953 1613 
Q 991 1019 1311 708 
Q 1631 397 2203 397 
Q 2534 397 2845 478 
Q 3156 559 3463 722 
L 3463 178 
Q 3153 47 2828 -22 
Q 2503 -91 2169 -91 
Q 1331 -91 842 396 
Q 353 884 353 1716 
Q 353 2575 817 3079 
Q 1281 3584 2069 3584 
Q 2775 3584 3186 3129 
Q 3597 2675 3597 1894 
z
M 3022 2063 
Q 3016 2534 2758 2815 
Q 2500 3097 2075 3097 
Q 1594 3097 1305 2825 
Q 1016 2553 972 2059 
L 3022 2063 
z
" transform="scale(0.015625)"/>
       <path id="DejaVuSans-6f" d="M 1959 3097 
Q 1497 3097 1228 2736 
Q 959 2375 959 1747 
Q 959 1119 1226 758 
Q 1494 397 1959 397 
Q 2419 397 2687 759 
Q 2956 1122 2956 1747 
Q 2956 2369 2687 2733 
Q 2419 3097 1959 3097 
z
M 1959 3584 
Q 2709 3584 3137 3096 
Q 3566 2609 3566 1747 
Q 3566 888 3137 398 
Q 2709 -91 1959 -91 
Q 1206 -91 779 398 
Q 353 888 353 1747 
Q 353 2609 779 3096 
Q 1206 3584 1959 3584 
z
" transform="scale(0.015625)"/>
       <path id="DejaVuSans-77" d="M 269 3500 
L 844 3500 
L 1563 769 
L 2278 3500 
L 2956 3500 
L 3675 769 
L 4391 3500 
L 4966 3500 
L 4050 0 
L 3372 0 
L 2619 2869 
L 1863 0 
L 1184 0 
L 269 3500 
z
" transform="scale(0.015625)"/>
       <path id="DejaVuSans-72" d="M 2631 2963 
Q 2534 3019 2420 3045 
Q 2306 3072 2169 3072 
Q 1681 3072 1420 2755 
Q 1159 2438 1159 1844 
L 1159 0 
L 581 0 
L 581 3500 
L 1159 3500 
L 1159 2956 
Q 1341 3275 1631 3429 
Q 1922 3584 2338 3584 
Q 2397 3584 2469 3576 
Q 2541 3569 2628 3553 
L 2631 2963 
z
" transform="scale(0.015625)"/>
       <path id="DejaVuSans-73" d="M 2834 3397 
L 2834 2853 
Q 2591 2978 2328 3040 
Q 2066 3103 1784 3103 
Q 1356 3103 1142 2972 
Q 928 2841 928 2578 
Q 928 2378 1081 2264 
Q 1234 2150 1697 2047 
L 1894 2003 
Q 2506 1872 2764 1633 
Q 3022 1394 3022 966 
Q 3022 478 2636 193 
Q 2250 -91 1575 -91 
Q 1294 -91 989 -36 
Q 684 19 347 128 
L 347 722 
Q 666 556 975 473 
Q 1284 391 1588 391 
Q 1994 391 2212 530 
Q 2431 669 2431 922 
Q 2431 1156 2273 1281 
Q 2116 1406 1581 1522 
L 1381 1569 
Q 847 1681 609 1914 
Q 372 2147 372 2553 
Q 372 3047 722 3315 
Q 1072 3584 1716 3584 
Q 2034 3584 2315 3537 
Q 2597 3491 2834 3397 
z
" transform="scale(0.015625)"/>
       <path id="DejaVuSans-2d" d="M 313 2009 
L 1997 2009 
L 1997 1497 
L 313 1497 
L 313 2009 
z
" transform="scale(0.015625)"/>
       <path id="DejaVuSans-63" d="M 3122 3366 
L 3122 2828 
Q 2878 2963 2633 3030 
Q 2388 3097 2138 3097 
Q 1578 3097 1268 2742 
Q 959 2388 959 1747 
Q 959 1106 1268 751 
Q 1578 397 2138 397 
Q 2388 397 2633 464 
Q 2878 531 3122 666 
L 3122 134 
Q 2881 22 2623 -34 
Q 2366 -91 2075 -91 
Q 1284 -91 818 406 
Q 353 903 353 1747 
Q 353 2603 823 3093 
Q 1294 3584 2113 3584 
Q 2378 3584 2631 3529 
Q 2884 3475 3122 3366 
z
" transform="scale(0.015625)"/>
       <path id="DejaVuSans-6c" d="M 603 4863 
L 1178 4863 
L 1178 0 
L 603 0 
L 603 4863 
z
" transform="scale(0.015625)"/>
      </defs>
      <use xlink:href="#DejaVuSans-41" transform="translate(0 0.015625)"/>
      <use xlink:href="#DejaVuSans-76" transform="translate(68.408203 0.015625)"/>
      <use xlink:href="#DejaVuSans-67" transform="translate(127.587891 0.015625)"/>
      <use xlink:href="#DejaVuSans-20" transform="translate(191.064453 0.015625)"/>
      <use xlink:href="#DejaVuSans-57" transform="translate(222.851562 0.015625)"/>
      <use xlink:href="#DejaVuSans-69" transform="translate(321.728516 0.015625)"/>
      <use xlink:href="#DejaVuSans-6e" transform="translate(349.511719 0.015625)"/>
      <use xlink:href="#DejaVuSans-20" transform="translate(412.890625 0.015625)"/>
      <use xlink:href="#DejaVuSans-52" transform="translate(444.677734 0.015625)"/>
      <use xlink:href="#DejaVuSans-61" transform="translate(514.160156 0.015625)"/>
      <use xlink:href="#DejaVuSans-74" transform="translate(575.439453 0.015625)"/>
      <use xlink:href="#DejaVuSans-65" transform="translate(614.648438 0.015625)"/>
      <use xlink:href="#DejaVuSans-20" transform="translate(676.171875 0.015625)"/>
      <use xlink:href="#DejaVuSans-25" transform="translate(707.958984 0.015625)"/>
      <use xlink:href="#DejaVuSans-20" transform="translate(802.978516 0.015625)"/>
      <use xlink:href="#DejaVuSans-6f" transform="translate(834.765625 0.015625)"/>
      <use xlink:href="#DejaVuSans-6e" transform="translate(895.947266 0.015625)"/>
      <use xlink:href="#DejaVuSans-20" transform="translate(959.326172 0.015625)"/>
      <use xlink:href="#DejaVuSans-77" transform="translate(991.113281 0.015625)"/>
      <use xlink:href="#DejaVuSans-6f" transform="translate(1072.900391 0.015625)"/>
      <use xlink:href="#DejaVuSans-72" transform="translate(1134.082031 0.015625)"/>
      <use xlink:href="#DejaVuSans-73" transform="translate(1175.195312 0.015625)"/>
      <use xlink:href="#DejaVuSans-74" transform="translate(1227.294922 0.015625)"/>
      <use xlink:href="#DejaVuSans-2d" transform="translate(1266.503906 0.015625)"/>
      <use xlink:href="#DejaVuSans-63" transform="translate(1302.587891 0.015625)"/>
      <use xlink:href="#DejaVuSans-61" transform="translate(1357.568359 0.015625)"/>
      <use xlink:href="#DejaVuSans-73" transform="translate(1418.847656 0.015625)"/>
      <use xlink:href="#DejaVuSans-65" transform="translate(1470.947266 0.015625)"/>
      <use xlink:href="#DejaVuSans-20" transform="translate(1532.470703 0.015625)"/>
      <use xlink:href="#DejaVuSans-Oblique-3b1" transform="translate(1564.257812 0.015625)"/>
      <use xlink:href="#DejaVuSans-25" transform="translate(1630.175781 0.015625)"/>
      <use xlink:href="#DejaVuSans-20" transform="translate(1725.195312 0.015625)"/>
      <use xlink:href="#DejaVuSans-6c" transform="translate(1756.982422 0.015625)"/>
      <use xlink:href="#DejaVuSans-65" transform="translate(1784.765625 0.015625)"/>
      <use xlink:href="#DejaVuSans-76" transform="translate(1846.289062 0.015625)"/>
      <use xlink:href="#DejaVuSans-65" transform="translate(1905.46875 0.015625)"/>
      <use xlink:href="#DejaVuSans-6c" transform="translate(1966.992188 0.015625)"/>
      <use xlink:href="#DejaVuSans-73" transform="translate(1994.775391 0.015625)"/>
     </g>
    </g>
   </g>
   <g id="line2d_56">
    <path d="M 75.999806 261.553328 
L 160.728835 186.918101 
L 245.457864 44.132658 
L 270.963843 28.299755 
L 304.680913 18.800012 
L 330.186893 15.633393 
L 355.692872 14.057406 
L 389.409942 13.117012 
L 414.915921 12.806695 
" clip-path="url(#pd067269258)" style="fill: none; stroke: #d55e00; stroke-width: 4; stroke-linecap: square"/>
    <defs>
     <path id="m051ab62ca2" d="M 0 3 
C 0.795609 3 1.55874 2.683901 2.12132 2.12132 
C 2.683901 1.55874 3 0.795609 3 0 
C 3 -0.795609 2.683901 -1.55874 2.12132 -2.12132 
C 1.55874 -2.683901 0.795609 -3 0 -3 
C -0.795609 -3 -1.55874 -2.683901 -2.12132 -2.12132 
C -2.683901 -1.55874 -3 -0.795609 -3 0 
C -3 0.795609 -2.683901 1.55874 -2.12132 2.12132 
C -1.55874 2.683901 -0.795609 3 0 3 
z
" style="stroke: #d55e00"/>
    </defs>
    <g clip-path="url(#pd067269258)">
     <use xlink:href="#m051ab62ca2" x="75.999806" y="261.553328" style="fill: #d55e00; stroke: #d55e00"/>
     <use xlink:href="#m051ab62ca2" x="160.728835" y="186.918101" style="fill: #d55e00; stroke: #d55e00"/>
     <use xlink:href="#m051ab62ca2" x="245.457864" y="44.132658" style="fill: #d55e00; stroke: #d55e00"/>
     <use xlink:href="#m051ab62ca2" x="270.963843" y="28.299755" style="fill: #d55e00; stroke: #d55e00"/>
     <use xlink:href="#m051ab62ca2" x="304.680913" y="18.800012" style="fill: #d55e00; stroke: #d55e00"/>
     <use xlink:href="#m051ab62ca2" x="330.186893" y="15.633393" style="fill: #d55e00; stroke: #d55e00"/>
     <use xlink:href="#m051ab62ca2" x="355.692872" y="14.057406" style="fill: #d55e00; stroke: #d55e00"/>
     <use xlink:href="#m051ab62ca2" x="389.409942" y="13.117012" style="fill: #d55e00; stroke: #d55e00"/>
     <use xlink:href="#m051ab62ca2" x="414.915921" y="12.806695" style="fill: #d55e00; stroke: #d55e00"/>
    </g>
   </g>
   <g id="line2d_57">
    <path d="M 75.999806 110.558863 
L 160.728835 53.194176 
L 245.457864 24.663133 
L 270.963843 19.700495 
L 304.680913 15.602789 
L 330.186893 14.086856 
L 355.692872 13.322709 
L 389.409942 12.878403 
L 414.915921 12.730979 
" clip-path="url(#pd067269258)" style="fill: none; stroke: #cc78bc; stroke-width: 4; stroke-linecap: square"/>
    <defs>
     <path id="m0d90cdeee2" d="M 0 3 
C 0.795609 3 1.55874 2.683901 2.12132 2.12132 
C 2.683901 1.55874 3 0.795609 3 0 
C 3 -0.795609 2.683901 -1.55874 2.12132 -2.12132 
C 1.55874 -2.683901 0.795609 -3 0 -3 
C -0.795609 -3 -1.55874 -2.683901 -2.12132 -2.12132 
C -2.683901 -1.55874 -3 -0.795609 -3 0 
C -3 0.795609 -2.683901 1.55874 -2.12132 2.12132 
C -1.55874 2.683901 -0.795609 3 0 3 
z
" style="stroke: #cc78bc"/>
    </defs>
    <g clip-path="url(#pd067269258)">
     <use xlink:href="#m0d90cdeee2" x="75.999806" y="110.558863" style="fill: #cc78bc; stroke: #cc78bc"/>
     <use xlink:href="#m0d90cdeee2" x="160.728835" y="53.194176" style="fill: #cc78bc; stroke: #cc78bc"/>
     <use xlink:href="#m0d90cdeee2" x="245.457864" y="24.663133" style="fill: #cc78bc; stroke: #cc78bc"/>
     <use xlink:href="#m0d90cdeee2" x="270.963843" y="19.700495" style="fill: #cc78bc; stroke: #cc78bc"/>
     <use xlink:href="#m0d90cdeee2" x="304.680913" y="15.602789" style="fill: #cc78bc; stroke: #cc78bc"/>
     <use xlink:href="#m0d90cdeee2" x="330.186893" y="14.086856" style="fill: #cc78bc; stroke: #cc78bc"/>
     <use xlink:href="#m0d90cdeee2" x="355.692872" y="13.322709" style="fill: #cc78bc; stroke: #cc78bc"/>
     <use xlink:href="#m0d90cdeee2" x="389.409942" y="12.878403" style="fill: #cc78bc; stroke: #cc78bc"/>
     <use xlink:href="#m0d90cdeee2" x="414.915921" y="12.730979" style="fill: #cc78bc; stroke: #cc78bc"/>
    </g>
   </g>
   <g id="line2d_58">
    <path d="M 75.999806 228.699075 
L 160.728835 156.125776 
L 245.457864 63.490427 
L 270.963843 44.16772 
L 304.680913 27.792521 
L 330.186893 20.436404 
L 355.692872 16.479474 
L 389.409942 14.163687 
L 414.915921 13.382313 
" clip-path="url(#pd067269258)" style="fill: none; stroke: #0173b2; stroke-width: 4; stroke-linecap: square"/>
    <defs>
     <path id="m17d85d53aa" d="M 0 3 
C 0.795609 3 1.55874 2.683901 2.12132 2.12132 
C 2.683901 1.55874 3 0.795609 3 0 
C 3 -0.795609 2.683901 -1.55874 2.12132 -2.12132 
C 1.55874 -2.683901 0.795609 -3 0 -3 
C -0.795609 -3 -1.55874 -2.683901 -2.12132 -2.12132 
C -2.683901 -1.55874 -3 -0.795609 -3 0 
C -3 0.795609 -2.683901 1.55874 -2.12132 2.12132 
C -1.55874 2.683901 -0.795609 3 0 3 
z
" style="stroke: #0173b2"/>
    </defs>
    <g clip-path="url(#pd067269258)">
     <use xlink:href="#m17d85d53aa" x="75.999806" y="228.699075" style="fill: #0173b2; stroke: #0173b2"/>
     <use xlink:href="#m17d85d53aa" x="160.728835" y="156.125776" style="fill: #0173b2; stroke: #0173b2"/>
     <use xlink:href="#m17d85d53aa" x="245.457864" y="63.490427" style="fill: #0173b2; stroke: #0173b2"/>
     <use xlink:href="#m17d85d53aa" x="270.963843" y="44.16772" style="fill: #0173b2; stroke: #0173b2"/>
     <use xlink:href="#m17d85d53aa" x="304.680913" y="27.792521" style="fill: #0173b2; stroke: #0173b2"/>
     <use xlink:href="#m17d85d53aa" x="330.186893" y="20.436404" style="fill: #0173b2; stroke: #0173b2"/>
     <use xlink:href="#m17d85d53aa" x="355.692872" y="16.479474" style="fill: #0173b2; stroke: #0173b2"/>
     <use xlink:href="#m17d85d53aa" x="389.409942" y="14.163687" style="fill: #0173b2; stroke: #0173b2"/>
     <use xlink:href="#m17d85d53aa" x="414.915921" y="13.382313" style="fill: #0173b2; stroke: #0173b2"/>
    </g>
   </g>
   <g id="line2d_59">
    <path d="M 75.999806 255.961116 
L 160.728835 240.287381 
L 245.457864 129.903618 
L 270.963843 86.030558 
L 304.680913 44.545012 
L 330.186893 28.525633 
L 355.692872 20.556432 
L 389.409942 15.839873 
L 414.915921 14.254245 
" clip-path="url(#pd067269258)" style="fill: none; stroke: #de8f05; stroke-width: 4; stroke-linecap: square"/>
    <defs>
     <path id="m4b4ade6a56" d="M 0 3 
C 0.795609 3 1.55874 2.683901 2.12132 2.12132 
C 2.683901 1.55874 3 0.795609 3 0 
C 3 -0.795609 2.683901 -1.55874 2.12132 -2.12132 
C 1.55874 -2.683901 0.795609 -3 0 -3 
C -0.795609 -3 -1.55874 -2.683901 -2.12132 -2.12132 
C -2.683901 -1.55874 -3 -0.795609 -3 0 
C -3 0.795609 -2.683901 1.55874 -2.12132 2.12132 
C -1.55874 2.683901 -0.795609 3 0 3 
z
" style="stroke: #de8f05"/>
    </defs>
    <g clip-path="url(#pd067269258)">
     <use xlink:href="#m4b4ade6a56" x="75.999806" y="255.961116" style="fill: #de8f05; stroke: #de8f05"/>
     <use xlink:href="#m4b4ade6a56" x="160.728835" y="240.287381" style="fill: #de8f05; stroke: #de8f05"/>
     <use xlink:href="#m4b4ade6a56" x="245.457864" y="129.903618" style="fill: #de8f05; stroke: #de8f05"/>
     <use xlink:href="#m4b4ade6a56" x="270.963843" y="86.030558" style="fill: #de8f05; stroke: #de8f05"/>
     <use xlink:href="#m4b4ade6a56" x="304.680913" y="44.545012" style="fill: #de8f05; stroke: #de8f05"/>
     <use xlink:href="#m4b4ade6a56" x="330.186893" y="28.525633" style="fill: #de8f05; stroke: #de8f05"/>
     <use xlink:href="#m4b4ade6a56" x="355.692872" y="20.556432" style="fill: #de8f05; stroke: #de8f05"/>
     <use xlink:href="#m4b4ade6a56" x="389.409942" y="15.839873" style="fill: #de8f05; stroke: #de8f05"/>
     <use xlink:href="#m4b4ade6a56" x="414.915921" y="14.254245" style="fill: #de8f05; stroke: #de8f05"/>
    </g>
   </g>
   <g id="line2d_60">
    <path d="M 75.999806 248.271821 
L 160.728835 211.325449 
L 245.457864 83.758046 
L 270.963843 53.169282 
L 304.680913 29.037247 
L 330.186893 20.762247 
L 355.692872 16.643598 
L 389.409942 14.228922 
L 414.915921 13.423104 
" clip-path="url(#pd067269258)" style="fill: none; stroke: #029e73; stroke-width: 4; stroke-linecap: square"/>
    <defs>
     <path id="m6f7b24f84f" d="M 0 3 
C 0.795609 3 1.55874 2.683901 2.12132 2.12132 
C 2.683901 1.55874 3 0.795609 3 0 
C 3 -0.795609 2.683901 -1.55874 2.12132 -2.12132 
C 1.55874 -2.683901 0.795609 -3 0 -3 
C -0.795609 -3 -1.55874 -2.683901 -2.12132 -2.12132 
C -2.683901 -1.55874 -3 -0.795609 -3 0 
C -3 0.795609 -2.683901 1.55874 -2.12132 2.12132 
C -1.55874 2.683901 -0.795609 3 0 3 
z
" style="stroke: #029e73"/>
    </defs>
    <g clip-path="url(#pd067269258)">
     <use xlink:href="#m6f7b24f84f" x="75.999806" y="248.271821" style="fill: #029e73; stroke: #029e73"/>
     <use xlink:href="#m6f7b24f84f" x="160.728835" y="211.325449" style="fill: #029e73; stroke: #029e73"/>
     <use xlink:href="#m6f7b24f84f" x="245.457864" y="83.758046" style="fill: #029e73; stroke: #029e73"/>
     <use xlink:href="#m6f7b24f84f" x="270.963843" y="53.169282" style="fill: #029e73; stroke: #029e73"/>
     <use xlink:href="#m6f7b24f84f" x="304.680913" y="29.037247" style="fill: #029e73; stroke: #029e73"/>
     <use xlink:href="#m6f7b24f84f" x="330.186893" y="20.762247" style="fill: #029e73; stroke: #029e73"/>
     <use xlink:href="#m6f7b24f84f" x="355.692872" y="16.643598" style="fill: #029e73; stroke: #029e73"/>
     <use xlink:href="#m6f7b24f84f" x="389.409942" y="14.228922" style="fill: #029e73; stroke: #029e73"/>
     <use xlink:href="#m6f7b24f84f" x="414.915921" y="13.423104" style="fill: #029e73; stroke: #029e73"/>
    </g>
   </g>
   <g id="patch_3">
    <path d="M 49.054 279.04 
L 49.054 0 
" style="fill: none; stroke: #000000; stroke-width: 2; stroke-linejoin: miter; stroke-linecap: square"/>
   </g>
   <g id="patch_4">
    <path d="M 59.054 289.04 
L 431.861727 289.04 
" style="fill: none; stroke: #000000; stroke-width: 2; stroke-linejoin: miter; stroke-linecap: square"/>
   </g>
   <g id="legend_1">
    <g id="patch_5">
     <path d="M 290.201727 271.84 
L 421.781727 271.84 
Q 424.661727 271.84 424.661727 268.96 
L 424.661727 164.605 
Q 424.661727 161.725 421.781727 161.725 
L 290.201727 161.725 
Q 287.321727 161.725 287.321727 164.605 
L 287.321727 268.96 
Q 287.321727 271.84 290.201727 271.84 
z
" style="fill: #ffffff; opacity: 0.8; stroke: #cccccc; stroke-linejoin: miter"/>
    </g>
    <g id="line2d_61">
     <path d="M 293.081727 173.38675 
L 307.481727 173.38675 
L 321.881727 173.38675 
" style="fill: none; stroke: #d55e00; stroke-width: 4; stroke-linecap: square"/>
     <g>
      <use xlink:href="#m051ab62ca2" x="307.481727" y="173.38675" style="fill: #d55e00; stroke: #d55e00"/>
     </g>
    </g>
    <g id="text_13">
     <!-- NCC-Learn -->
     <g transform="translate(333.401727 178.42675) scale(0.144 -0.144)">
      <defs>
       <path id="DejaVuSans-Bold-4e" d="M 588 4666 
L 1931 4666 
L 3628 1466 
L 3628 4666 
L 4769 4666 
L 4769 0 
L 3425 0 
L 1728 3200 
L 1728 0 
L 588 0 
L 588 4666 
z
" transform="scale(0.015625)"/>
       <path id="DejaVuSans-Bold-43" d="M 4288 256 
Q 3956 84 3597 -3 
Q 3238 -91 2847 -91 
Q 1681 -91 1000 561 
Q 319 1213 319 2328 
Q 319 3447 1000 4098 
Q 1681 4750 2847 4750 
Q 3238 4750 3597 4662 
Q 3956 4575 4288 4403 
L 4288 3438 
Q 3953 3666 3628 3772 
Q 3303 3878 2944 3878 
Q 2300 3878 1931 3465 
Q 1563 3053 1563 2328 
Q 1563 1606 1931 1193 
Q 2300 781 2944 781 
Q 3303 781 3628 887 
Q 3953 994 4288 1222 
L 4288 256 
z
" transform="scale(0.015625)"/>
       <path id="DejaVuSans-Bold-2d" d="M 347 2297 
L 2309 2297 
L 2309 1388 
L 347 1388 
L 347 2297 
z
" transform="scale(0.015625)"/>
       <path id="DejaVuSans-Bold-4c" d="M 588 4666 
L 1791 4666 
L 1791 909 
L 3903 909 
L 3903 0 
L 588 0 
L 588 4666 
z
" transform="scale(0.015625)"/>
       <path id="DejaVuSans-Bold-65" d="M 4031 1759 
L 4031 1441 
L 1416 1441 
Q 1456 1047 1700 850 
Q 1944 653 2381 653 
Q 2734 653 3104 758 
Q 3475 863 3866 1075 
L 3866 213 
Q 3469 63 3072 -14 
Q 2675 -91 2278 -91 
Q 1328 -91 801 392 
Q 275 875 275 1747 
Q 275 2603 792 3093 
Q 1309 3584 2216 3584 
Q 3041 3584 3536 3087 
Q 4031 2591 4031 1759 
z
M 2881 2131 
Q 2881 2450 2695 2645 
Q 2509 2841 2209 2841 
Q 1884 2841 1681 2658 
Q 1478 2475 1428 2131 
L 2881 2131 
z
" transform="scale(0.015625)"/>
       <path id="DejaVuSans-Bold-61" d="M 2106 1575 
Q 1756 1575 1579 1456 
Q 1403 1338 1403 1106 
Q 1403 894 1545 773 
Q 1688 653 1941 653 
Q 2256 653 2472 879 
Q 2688 1106 2688 1447 
L 2688 1575 
L 2106 1575 
z
M 3816 1997 
L 3816 0 
L 2688 0 
L 2688 519 
Q 2463 200 2181 54 
Q 1900 -91 1497 -91 
Q 953 -91 614 226 
Q 275 544 275 1050 
Q 275 1666 698 1953 
Q 1122 2241 2028 2241 
L 2688 2241 
L 2688 2328 
Q 2688 2594 2478 2717 
Q 2269 2841 1825 2841 
Q 1466 2841 1156 2769 
Q 847 2697 581 2553 
L 581 3406 
Q 941 3494 1303 3539 
Q 1666 3584 2028 3584 
Q 2975 3584 3395 3211 
Q 3816 2838 3816 1997 
z
" transform="scale(0.015625)"/>
       <path id="DejaVuSans-Bold-72" d="M 3138 2547 
Q 2991 2616 2845 2648 
Q 2700 2681 2553 2681 
Q 2122 2681 1889 2404 
Q 1656 2128 1656 1613 
L 1656 0 
L 538 0 
L 538 3500 
L 1656 3500 
L 1656 2925 
Q 1872 3269 2151 3426 
Q 2431 3584 2822 3584 
Q 2878 3584 2943 3579 
Q 3009 3575 3134 3559 
L 3138 2547 
z
" transform="scale(0.015625)"/>
       <path id="DejaVuSans-Bold-6e" d="M 4056 2131 
L 4056 0 
L 2931 0 
L 2931 347 
L 2931 1631 
Q 2931 2084 2911 2256 
Q 2891 2428 2841 2509 
Q 2775 2619 2662 2680 
Q 2550 2741 2406 2741 
Q 2056 2741 1856 2470 
Q 1656 2200 1656 1722 
L 1656 0 
L 538 0 
L 538 3500 
L 1656 3500 
L 1656 2988 
Q 1909 3294 2193 3439 
Q 2478 3584 2822 3584 
Q 3428 3584 3742 3212 
Q 4056 2841 4056 2131 
z
" transform="scale(0.015625)"/>
      </defs>
      <use xlink:href="#DejaVuSans-Bold-4e"/>
      <use xlink:href="#DejaVuSans-Bold-43" transform="translate(83.691406 0)"/>
      <use xlink:href="#DejaVuSans-Bold-43" transform="translate(157.080078 0)"/>
      <use xlink:href="#DejaVuSans-Bold-2d" transform="translate(232.71875 0)"/>
      <use xlink:href="#DejaVuSans-Bold-4c" transform="translate(274.222656 0)"/>
      <use xlink:href="#DejaVuSans-Bold-65" transform="translate(337.943359 0)"/>
      <use xlink:href="#DejaVuSans-Bold-61" transform="translate(405.765625 0)"/>
      <use xlink:href="#DejaVuSans-Bold-72" transform="translate(473.246094 0)"/>
      <use xlink:href="#DejaVuSans-Bold-6e" transform="translate(522.5625 0)"/>
     </g>
    </g>
    <g id="line2d_62">
     <path d="M 293.081727 194.52325 
L 307.481727 194.52325 
L 321.881727 194.52325 
" style="fill: none; stroke: #cc78bc; stroke-width: 4; stroke-linecap: square"/>
     <g>
      <use xlink:href="#m0d90cdeee2" x="307.481727" y="194.52325" style="fill: #cc78bc; stroke: #cc78bc"/>
     </g>
    </g>
    <g id="text_14">
     <!-- NCC-Reg -->
     <g transform="translate(333.401727 199.56325) scale(0.144 -0.144)">
      <defs>
       <path id="DejaVuSans-Bold-52" d="M 2297 2597 
Q 2675 2597 2839 2737 
Q 3003 2878 3003 3200 
Q 3003 3519 2839 3656 
Q 2675 3794 2297 3794 
L 1791 3794 
L 1791 2597 
L 2297 2597 
z
M 1791 1766 
L 1791 0 
L 588 0 
L 588 4666 
L 2425 4666 
Q 3347 4666 3776 4356 
Q 4206 4047 4206 3378 
Q 4206 2916 3982 2619 
Q 3759 2322 3309 2181 
Q 3556 2125 3751 1926 
Q 3947 1728 4147 1325 
L 4800 0 
L 3519 0 
L 2950 1159 
Q 2778 1509 2601 1637 
Q 2425 1766 2131 1766 
L 1791 1766 
z
" transform="scale(0.015625)"/>
       <path id="DejaVuSans-Bold-67" d="M 2919 594 
Q 2688 288 2409 144 
Q 2131 0 1766 0 
Q 1125 0 706 504 
Q 288 1009 288 1791 
Q 288 2575 706 3076 
Q 1125 3578 1766 3578 
Q 2131 3578 2409 3434 
Q 2688 3291 2919 2981 
L 2919 3500 
L 4044 3500 
L 4044 353 
Q 4044 -491 3511 -936 
Q 2978 -1381 1966 -1381 
Q 1638 -1381 1331 -1331 
Q 1025 -1281 716 -1178 
L 716 -306 
Q 1009 -475 1290 -558 
Q 1572 -641 1856 -641 
Q 2406 -641 2662 -400 
Q 2919 -159 2919 353 
L 2919 594 
z
M 2181 2772 
Q 1834 2772 1640 2515 
Q 1447 2259 1447 1791 
Q 1447 1309 1634 1061 
Q 1822 813 2181 813 
Q 2531 813 2725 1069 
Q 2919 1325 2919 1791 
Q 2919 2259 2725 2515 
Q 2531 2772 2181 2772 
z
" transform="scale(0.015625)"/>
      </defs>
      <use xlink:href="#DejaVuSans-Bold-4e"/>
      <use xlink:href="#DejaVuSans-Bold-43" transform="translate(83.691406 0)"/>
      <use xlink:href="#DejaVuSans-Bold-43" transform="translate(157.080078 0)"/>
      <use xlink:href="#DejaVuSans-Bold-2d" transform="translate(232.71875 0)"/>
      <use xlink:href="#DejaVuSans-Bold-52" transform="translate(274.222656 0)"/>
      <use xlink:href="#DejaVuSans-Bold-65" transform="translate(351.224609 0)"/>
      <use xlink:href="#DejaVuSans-Bold-67" transform="translate(419.046875 0)"/>
     </g>
    </g>
    <g id="line2d_63">
     <path d="M 293.081727 215.77225 
L 307.481727 215.77225 
L 321.881727 215.77225 
" style="fill: none; stroke: #0173b2; stroke-width: 4; stroke-linecap: square"/>
     <g>
      <use xlink:href="#m17d85d53aa" x="307.481727" y="215.77225" style="fill: #0173b2; stroke: #0173b2"/>
     </g>
    </g>
    <g id="text_15">
     <!-- SFL -->
     <g transform="translate(333.401727 220.81225) scale(0.144 -0.144)">
      <defs>
       <path id="DejaVuSans-53" d="M 3425 4513 
L 3425 3897 
Q 3066 4069 2747 4153 
Q 2428 4238 2131 4238 
Q 1616 4238 1336 4038 
Q 1056 3838 1056 3469 
Q 1056 3159 1242 3001 
Q 1428 2844 1947 2747 
L 2328 2669 
Q 3034 2534 3370 2195 
Q 3706 1856 3706 1288 
Q 3706 609 3251 259 
Q 2797 -91 1919 -91 
Q 1588 -91 1214 -16 
Q 841 59 441 206 
L 441 856 
Q 825 641 1194 531 
Q 1563 422 1919 422 
Q 2459 422 2753 634 
Q 3047 847 3047 1241 
Q 3047 1584 2836 1778 
Q 2625 1972 2144 2069 
L 1759 2144 
Q 1053 2284 737 2584 
Q 422 2884 422 3419 
Q 422 4038 858 4394 
Q 1294 4750 2059 4750 
Q 2388 4750 2728 4690 
Q 3069 4631 3425 4513 
z
" transform="scale(0.015625)"/>
       <path id="DejaVuSans-46" d="M 628 4666 
L 3309 4666 
L 3309 4134 
L 1259 4134 
L 1259 2759 
L 3109 2759 
L 3109 2228 
L 1259 2228 
L 1259 0 
L 628 0 
L 628 4666 
z
" transform="scale(0.015625)"/>
       <path id="DejaVuSans-4c" d="M 628 4666 
L 1259 4666 
L 1259 531 
L 3531 531 
L 3531 0 
L 628 0 
L 628 4666 
z
" transform="scale(0.015625)"/>
      </defs>
      <use xlink:href="#DejaVuSans-53"/>
      <use xlink:href="#DejaVuSans-46" transform="translate(63.476562 0)"/>
      <use xlink:href="#DejaVuSans-4c" transform="translate(120.996094 0)"/>
     </g>
    </g>
    <g id="line2d_64">
     <path d="M 293.081727 236.90875 
L 307.481727 236.90875 
L 321.881727 236.90875 
" style="fill: none; stroke: #de8f05; stroke-width: 4; stroke-linecap: square"/>
     <g>
      <use xlink:href="#m4b4ade6a56" x="307.481727" y="236.90875" style="fill: #de8f05; stroke: #de8f05"/>
     </g>
    </g>
    <g id="text_16">
     <!-- DR -->
     <g transform="translate(333.401727 241.94875) scale(0.144 -0.144)">
      <defs>
       <path id="DejaVuSans-44" d="M 1259 4147 
L 1259 519 
L 2022 519 
Q 2988 519 3436 956 
Q 3884 1394 3884 2338 
Q 3884 3275 3436 3711 
Q 2988 4147 2022 4147 
L 1259 4147 
z
M 628 4666 
L 1925 4666 
Q 3281 4666 3915 4102 
Q 4550 3538 4550 2338 
Q 4550 1131 3912 565 
Q 3275 0 1925 0 
L 628 0 
L 628 4666 
z
" transform="scale(0.015625)"/>
      </defs>
      <use xlink:href="#DejaVuSans-44"/>
      <use xlink:href="#DejaVuSans-52" transform="translate(77.001953 0)"/>
     </g>
    </g>
    <g id="line2d_65">
     <path d="M 293.081727 258.04525 
L 307.481727 258.04525 
L 321.881727 258.04525 
" style="fill: none; stroke: #029e73; stroke-width: 4; stroke-linecap: square"/>
     <g>
      <use xlink:href="#m6f7b24f84f" x="307.481727" y="258.04525" style="fill: #029e73; stroke: #029e73"/>
     </g>
    </g>
    <g id="text_17">
     <!-- PLR -->
     <g transform="translate(333.401727 263.08525) scale(0.144 -0.144)">
      <defs>
       <path id="DejaVuSans-50" d="M 1259 4147 
L 1259 2394 
L 2053 2394 
Q 2494 2394 2734 2622 
Q 2975 2850 2975 3272 
Q 2975 3691 2734 3919 
Q 2494 4147 2053 4147 
L 1259 4147 
z
M 628 4666 
L 2053 4666 
Q 2838 4666 3239 4311 
Q 3641 3956 3641 3272 
Q 3641 2581 3239 2228 
Q 2838 1875 2053 1875 
L 1259 1875 
L 1259 0 
L 628 0 
L 628 4666 
z
" transform="scale(0.015625)"/>
      </defs>
      <use xlink:href="#DejaVuSans-50"/>
      <use xlink:href="#DejaVuSans-4c" transform="translate(60.302734 0)"/>
      <use xlink:href="#DejaVuSans-52" transform="translate(116.015625 0)"/>
     </g>
    </g>
   </g>
  </g>
 </g>
 <defs>
  <clipPath id="pd067269258">
   <rect x="59.054" y="0" width="372.807727" height="279.04"/>
  </clipPath>
 </defs>
</svg>
