<?xml version="1.0" encoding="utf-8" standalone="no"?>
<!DOCTYPE svg PUBLIC "-//W3C//DTD SVG 1.1//EN"
  "http://www.w3.org/Graphics/SVG/1.1/DTD/svg11.dtd">
<svg xmlns:xlink="http://www.w3.org/1999/xlink" width="576pt" height="432pt" viewBox="0 0 576 432" xmlns="http://www.w3.org/2000/svg" version="1.1">
 <metadata>
  <rdf:RDF xmlns:dc="http://purl.org/dc/elements/1.1/" xmlns:cc="http://creativecommons.org/ns#" xmlns:rdf="http://www.w3.org/1999/02/22-rdf-syntax-ns#">
   <cc:Work>
    <dc:type rdf:resource="http://purl.org/dc/dcmitype/StillImage"/>
    <dc:date>2025-05-16T00:07:18.347245</dc:date>
    <dc:format>image/svg+xml</dc:format>
    <dc:creator>
     <cc:Agent>
      <dc:title>Matplotlib v3.9.2, https://matplotlib.org/</dc:title>
     </cc:Agent>
    </dc:creator>
   </cc:Work>
  </rdf:RDF>
 </metadata>
 <defs>
  <style type="text/css">*{stroke-linejoin: round; stroke-linecap: butt}</style>
 </defs>
 <g id="figure_1">
  <g id="patch_1">
   <path d="M 0 432 
L 576 432 
L 576 0 
L 0 0 
z
" style="fill: #ffffff"/>
  </g>
  <g id="axes_1">
   <g id="patch_2">
    <path d="M 72 384.48 
L 518.4 384.48 
L 518.4 51.84 
L 72 51.84 
z
" style="fill: #ffffff"/>
   </g>
   <g id="PolyCollection_1">
    <defs>
     <path id="me1f5e9da15" d="M 92.290909 -62.64 
L 92.290909 -62.64 
L 101.51405 -63.38135 
L 110.73719 -64.680315 
L 119.960331 -73.711967 
L 129.183471 -76.300646 
L 138.406612 -82.834111 
L 147.629752 -86.998973 
L 156.852893 -114.792576 
L 166.076033 -154.774287 
L 175.299174 -179.039854 
L 184.522314 -230.651852 
L 193.745455 -215.035584 
L 202.968595 -201.059518 
L 212.191736 -243.977888 
L 221.414876 -291.273534 
L 230.638017 -261.891206 
L 239.861157 -287.172969 
L 249.084298 -257.95319 
L 258.307438 -234.145566 
L 267.530579 -273.611135 
L 276.753719 -270.318349 
L 285.97686 -273.116388 
L 295.2 -245.892618 
L 304.42314 -291.453752 
L 313.646281 -295.018358 
L 322.869421 -305.546482 
L 332.092562 -282.359517 
L 341.315702 -273.512454 
L 350.538843 -278.488458 
L 359.761983 -277.82105 
L 368.985124 -262.719323 
L 378.208264 -295.777279 
L 387.431405 -281.859055 
L 396.654545 -292.457216 
L 405.877686 -283.52551 
L 415.100826 -286.845259 
L 424.323967 -265.767801 
L 433.547107 -265.287196 
L 442.770248 -267.640981 
L 451.993388 -278.399778 
L 461.216529 -278.819179 
L 470.439669 -270.935671 
L 479.66281 -274.958493 
L 488.88595 -270.148881 
L 498.109091 -263.08607 
L 498.109091 -295.259623 
L 498.109091 -295.259623 
L 488.88595 -299.180367 
L 479.66281 -302.216136 
L 470.439669 -306.23897 
L 461.216529 -309.339001 
L 451.993388 -308.189325 
L 442.770248 -300.119178 
L 433.547107 -305.611125 
L 424.323967 -305.130517 
L 415.100826 -309.158318 
L 405.877686 -309.339912 
L 396.654545 -314.529912 
L 387.431405 -312.575433 
L 378.208264 -326.900638 
L 368.985124 -309.748075 
L 359.761983 -310.33713 
L 350.538843 -315.946042 
L 341.315702 -314.645729 
L 332.092562 -310.505909 
L 322.869421 -342.236684 
L 313.646281 -321.383234 
L 304.42314 -324.947853 
L 295.2 -295.193212 
L 285.97686 -297.78194 
L 276.753719 -314.701674 
L 267.530579 -317.68521 
L 258.307438 -286.542246 
L 249.084298 -300.392503 
L 239.861157 -313.537846 
L 230.638017 -299.592652 
L 221.414876 -321.989911 
L 212.191736 -278.278994 
L 202.968595 -253.726982 
L 193.745455 -269.563416 
L 184.522314 -255.516233 
L 175.299174 -217.690748 
L 166.076033 -194.883953 
L 156.852893 -142.290029 
L 147.629752 -99.475094 
L 138.406612 -91.087326 
L 129.183471 -85.068162 
L 119.960331 -79.811448 
L 110.73719 -70.014157 
L 101.51405 -68.174965 
L 92.290909 -62.64 
z
" style="stroke: #b253e6; stroke-opacity: 0.2"/>
    </defs>
    <g clip-path="url(#p280dde0175)">
     <use xlink:href="#me1f5e9da15" x="0" y="432" style="fill: #b253e6; fill-opacity: 0.2; stroke: #b253e6; stroke-opacity: 0.2"/>
    </g>
   </g>
   <g id="PolyCollection_2">
    <defs>
     <path id="m53f4e396e2" d="M 92.290909 -76.476321 
L 92.290909 -70.770779 
L 101.51405 -106.840746 
L 110.73719 -155.565304 
L 119.960331 -187.24243 
L 129.183471 -217.278042 
L 138.406612 -222.936509 
L 147.629752 -219.778018 
L 156.852893 -216.987675 
L 166.076033 -269.616819 
L 175.299174 -277.042714 
L 184.522314 -270.207828 
L 193.745455 -259.251638 
L 202.968595 -291.329297 
L 212.191736 -235.193395 
L 221.414876 -266.642586 
L 230.638017 -246.234226 
L 239.861157 -273.982706 
L 249.084298 -260.11068 
L 258.307438 -266.597686 
L 267.530579 -279.473452 
L 276.753719 -314.907332 
L 285.97686 -332.349859 
L 295.2 -319.749666 
L 304.42314 -323.603524 
L 313.646281 -323.749655 
L 322.869421 -311.49929 
L 332.092562 -308.534473 
L 341.315702 -305.782805 
L 350.538843 -318.356295 
L 359.761983 -309.989616 
L 368.985124 -322.397483 
L 378.208264 -297.184075 
L 387.431405 -315.705103 
L 396.654545 -311.99351 
L 405.877686 -332.356435 
L 415.100826 -335.068348 
L 424.323967 -329.067961 
L 433.547107 -336.176622 
L 442.770248 -332.793361 
L 451.993388 -327.625022 
L 461.216529 -323.496448 
L 470.439669 -331.450716 
L 479.66281 -343.12767 
L 488.88595 -331.67559 
L 498.109091 -342.368155 
L 498.109091 -365.04 
L 498.109091 -365.04 
L 488.88595 -358.472705 
L 479.66281 -360.357792 
L 470.439669 -356.34396 
L 461.216529 -353.314677 
L 451.993388 -353.1088 
L 442.770248 -352.6477 
L 433.547107 -358.678908 
L 424.323967 -353.234942 
L 415.100826 -351.157248 
L 405.877686 -357.791861 
L 396.654545 -334.220586 
L 387.431405 -340.707998 
L 378.208264 -330.201073 
L 368.985124 -344.214634 
L 359.761983 -336.224476 
L 350.538843 -346.686745 
L 341.315702 -327.094117 
L 332.092562 -336.895084 
L 322.869421 -338.637499 
L 313.646281 -343.647004 
L 304.42314 -339.085893 
L 295.2 -335.878897 
L 285.97686 -343.676728 
L 276.753719 -329.737683 
L 267.530579 -319.66828 
L 258.307438 -312.146031 
L 249.084298 -308.434026 
L 239.861157 -306.330089 
L 230.638017 -291.713451 
L 221.414876 -297.194884 
L 212.191736 -295.693421 
L 202.968595 -321.93415 
L 193.745455 -288.895046 
L 184.522314 -309.320432 
L 175.299174 -304.054623 
L 166.076033 -299.712421 
L 156.852893 -254.274159 
L 147.629752 -265.605532 
L 138.406612 -266.369733 
L 129.183471 -255.552878 
L 119.960331 -225.178958 
L 110.73719 -209.783726 
L 101.51405 -120.429365 
L 92.290909 -76.476321 
z
" style="stroke: #d55e00; stroke-opacity: 0.2"/>
    </defs>
    <g clip-path="url(#p280dde0175)">
     <use xlink:href="#m53f4e396e2" x="0" y="432" style="fill: #d55e00; fill-opacity: 0.2; stroke: #d55e00; stroke-opacity: 0.2"/>
    </g>
   </g>
   <g id="PolyCollection_3">
    <defs>
     <path id="m20cdad78e7" d="M 92.290909 -64.654059 
L 92.290909 -62.979559 
L 101.51405 -67.503685 
L 110.73719 -106.9585 
L 119.960331 -145.947679 
L 129.183471 -200.468829 
L 138.406612 -257.293216 
L 147.629752 -234.766317 
L 156.852893 -267.374277 
L 166.076033 -244.689046 
L 175.299174 -203.230727 
L 184.522314 -233.549528 
L 193.745455 -203.557157 
L 202.968595 -255.35998 
L 212.191736 -230.685922 
L 221.414876 -288.000299 
L 230.638017 -306.73809 
L 239.861157 -303.406624 
L 249.084298 -304.066196 
L 258.307438 -304.930091 
L 267.530579 -296.996982 
L 276.753719 -272.540091 
L 285.97686 -257.509474 
L 295.2 -288.834146 
L 304.42314 -303.923348 
L 313.646281 -320.608072 
L 322.869421 -279.330463 
L 332.092562 -288.140683 
L 341.315702 -300.629622 
L 350.538843 -316.34218 
L 359.761983 -297.39015 
L 368.985124 -311.161347 
L 378.208264 -322.334406 
L 387.431405 -319.650665 
L 396.654545 -334.875135 
L 405.877686 -302.798147 
L 415.100826 -290.206753 
L 424.323967 -345.954855 
L 433.547107 -344.656796 
L 442.770248 -316.637964 
L 451.993388 -331.700478 
L 461.216529 -344.50521 
L 470.439669 -340.394218 
L 479.66281 -334.067399 
L 488.88595 -341.3138 
L 498.109091 -353.515406 
L 498.109091 -360.953604 
L 498.109091 -360.953604 
L 488.88595 -355.89535 
L 479.66281 -345.881885 
L 470.439669 -352.892247 
L 461.216529 -353.488479 
L 451.993388 -356.094198 
L 442.770248 -348.40508 
L 433.547107 -354.905977 
L 424.323967 -354.392453 
L 415.100826 -330.902091 
L 405.877686 -341.846879 
L 396.654545 -348.996841 
L 387.431405 -343.823305 
L 378.208264 -339.57048 
L 368.985124 -343.682686 
L 359.761983 -323.71869 
L 350.538843 -336.148232 
L 341.315702 -327.540069 
L 332.092562 -314.92376 
L 322.869421 -314.319509 
L 313.646281 -342.865891 
L 304.42314 -328.953582 
L 295.2 -335.412854 
L 285.97686 -314.173396 
L 276.753719 -327.386191 
L 267.530579 -335.095413 
L 258.307438 -333.438616 
L 249.084298 -323.318963 
L 239.861157 -336.531158 
L 230.638017 -328.492458 
L 221.414876 -315.848682 
L 212.191736 -277.449261 
L 202.968595 -295.924869 
L 193.745455 -267.704674 
L 184.522314 -295.768216 
L 175.299174 -243.710388 
L 166.076033 -284.6287 
L 156.852893 -298.816811 
L 147.629752 -267.092553 
L 138.406612 -283.00808 
L 129.183471 -254.317671 
L 119.960331 -181.743464 
L 110.73719 -139.140554 
L 101.51405 -73.467101 
L 92.290909 -64.654059 
z
" style="stroke: #cc78bc; stroke-opacity: 0.2"/>
    </defs>
    <g clip-path="url(#p280dde0175)">
     <use xlink:href="#m20cdad78e7" x="0" y="432" style="fill: #cc78bc; fill-opacity: 0.2; stroke: #cc78bc; stroke-opacity: 0.2"/>
    </g>
   </g>
   <g id="matplotlib.axis_1">
    <g id="xtick_1">
     <g id="line2d_1">
      <path d="M 92.290909 384.48 
L 92.290909 51.84 
" clip-path="url(#p280dde0175)" style="fill: none; stroke: #b0b0b0; stroke-opacity: 0.2; stroke-width: 0.8; stroke-linecap: square"/>
     </g>
     <g id="line2d_2">
      <defs>
       <path id="m17e939cd44" d="M 0 0 
L 0 0.1 
" style="stroke: #000000; stroke-width: 0.1"/>
      </defs>
      <g>
       <use xlink:href="#m17e939cd44" x="92.290909" y="394.48" style="stroke: #000000; stroke-width: 0.1"/>
      </g>
     </g>
     <g id="text_1">
      <!-- 0.0 -->
      <g transform="translate(80.840659 409.02175) scale(0.144 -0.144)">
       <defs>
        <path id="DejaVuSans-30" d="M 2034 4250 
Q 1547 4250 1301 3770 
Q 1056 3291 1056 2328 
Q 1056 1369 1301 889 
Q 1547 409 2034 409 
Q 2525 409 2770 889 
Q 3016 1369 3016 2328 
Q 3016 3291 2770 3770 
Q 2525 4250 2034 4250 
z
M 2034 4750 
Q 2819 4750 3233 4129 
Q 3647 3509 3647 2328 
Q 3647 1150 3233 529 
Q 2819 -91 2034 -91 
Q 1250 -91 836 529 
Q 422 1150 422 2328 
Q 422 3509 836 4129 
Q 1250 4750 2034 4750 
z
" transform="scale(0.015625)"/>
        <path id="DejaVuSans-2e" d="M 684 794 
L 1344 794 
L 1344 0 
L 684 0 
L 684 794 
z
" transform="scale(0.015625)"/>
       </defs>
       <use xlink:href="#DejaVuSans-30"/>
       <use xlink:href="#DejaVuSans-2e" x="63.623047"/>
       <use xlink:href="#DejaVuSans-30" x="95.410156"/>
      </g>
     </g>
    </g>
    <g id="xtick_2">
     <g id="line2d_3">
      <path d="M 162.657887 384.48 
L 162.657887 51.84 
" clip-path="url(#p280dde0175)" style="fill: none; stroke: #b0b0b0; stroke-opacity: 0.2; stroke-width: 0.8; stroke-linecap: square"/>
     </g>
     <g id="line2d_4">
      <g>
       <use xlink:href="#m17e939cd44" x="162.657887" y="394.48" style="stroke: #000000; stroke-width: 0.1"/>
      </g>
     </g>
     <g id="text_2">
      <!-- 0.5 -->
      <g transform="translate(151.207637 409.02175) scale(0.144 -0.144)">
       <defs>
        <path id="DejaVuSans-35" d="M 691 4666 
L 3169 4666 
L 3169 4134 
L 1269 4134 
L 1269 2991 
Q 1406 3038 1543 3061 
Q 1681 3084 1819 3084 
Q 2600 3084 3056 2656 
Q 3513 2228 3513 1497 
Q 3513 744 3044 326 
Q 2575 -91 1722 -91 
Q 1428 -91 1123 -41 
Q 819 9 494 109 
L 494 744 
Q 775 591 1075 516 
Q 1375 441 1709 441 
Q 2250 441 2565 725 
Q 2881 1009 2881 1497 
Q 2881 1984 2565 2268 
Q 2250 2553 1709 2553 
Q 1456 2553 1204 2497 
Q 953 2441 691 2322 
L 691 4666 
z
" transform="scale(0.015625)"/>
       </defs>
       <use xlink:href="#DejaVuSans-30"/>
       <use xlink:href="#DejaVuSans-2e" x="63.623047"/>
       <use xlink:href="#DejaVuSans-35" x="95.410156"/>
      </g>
     </g>
    </g>
    <g id="xtick_3">
     <g id="line2d_5">
      <path d="M 233.024864 384.48 
L 233.024864 51.84 
" clip-path="url(#p280dde0175)" style="fill: none; stroke: #b0b0b0; stroke-opacity: 0.2; stroke-width: 0.8; stroke-linecap: square"/>
     </g>
     <g id="line2d_6">
      <g>
       <use xlink:href="#m17e939cd44" x="233.024864" y="394.48" style="stroke: #000000; stroke-width: 0.1"/>
      </g>
     </g>
     <g id="text_3">
      <!-- 1.0 -->
      <g transform="translate(221.574614 409.02175) scale(0.144 -0.144)">
       <defs>
        <path id="DejaVuSans-31" d="M 794 531 
L 1825 531 
L 1825 4091 
L 703 3866 
L 703 4441 
L 1819 4666 
L 2450 4666 
L 2450 531 
L 3481 531 
L 3481 0 
L 794 0 
L 794 531 
z
" transform="scale(0.015625)"/>
       </defs>
       <use xlink:href="#DejaVuSans-31"/>
       <use xlink:href="#DejaVuSans-2e" x="63.623047"/>
       <use xlink:href="#DejaVuSans-30" x="95.410156"/>
      </g>
     </g>
    </g>
    <g id="xtick_4">
     <g id="line2d_7">
      <path d="M 303.391842 384.48 
L 303.391842 51.84 
" clip-path="url(#p280dde0175)" style="fill: none; stroke: #b0b0b0; stroke-opacity: 0.2; stroke-width: 0.8; stroke-linecap: square"/>
     </g>
     <g id="line2d_8">
      <g>
       <use xlink:href="#m17e939cd44" x="303.391842" y="394.48" style="stroke: #000000; stroke-width: 0.1"/>
      </g>
     </g>
     <g id="text_4">
      <!-- 1.5 -->
      <g transform="translate(291.941592 409.02175) scale(0.144 -0.144)">
       <use xlink:href="#DejaVuSans-31"/>
       <use xlink:href="#DejaVuSans-2e" x="63.623047"/>
       <use xlink:href="#DejaVuSans-35" x="95.410156"/>
      </g>
     </g>
    </g>
    <g id="xtick_5">
     <g id="line2d_9">
      <path d="M 373.75882 384.48 
L 373.75882 51.84 
" clip-path="url(#p280dde0175)" style="fill: none; stroke: #b0b0b0; stroke-opacity: 0.2; stroke-width: 0.8; stroke-linecap: square"/>
     </g>
     <g id="line2d_10">
      <g>
       <use xlink:href="#m17e939cd44" x="373.75882" y="394.48" style="stroke: #000000; stroke-width: 0.1"/>
      </g>
     </g>
     <g id="text_5">
      <!-- 2.0 -->
      <g transform="translate(362.30857 409.02175) scale(0.144 -0.144)">
       <defs>
        <path id="DejaVuSans-32" d="M 1228 531 
L 3431 531 
L 3431 0 
L 469 0 
L 469 531 
Q 828 903 1448 1529 
Q 2069 2156 2228 2338 
Q 2531 2678 2651 2914 
Q 2772 3150 2772 3378 
Q 2772 3750 2511 3984 
Q 2250 4219 1831 4219 
Q 1534 4219 1204 4116 
Q 875 4013 500 3803 
L 500 4441 
Q 881 4594 1212 4672 
Q 1544 4750 1819 4750 
Q 2544 4750 2975 4387 
Q 3406 4025 3406 3419 
Q 3406 3131 3298 2873 
Q 3191 2616 2906 2266 
Q 2828 2175 2409 1742 
Q 1991 1309 1228 531 
z
" transform="scale(0.015625)"/>
       </defs>
       <use xlink:href="#DejaVuSans-32"/>
       <use xlink:href="#DejaVuSans-2e" x="63.623047"/>
       <use xlink:href="#DejaVuSans-30" x="95.410156"/>
      </g>
     </g>
    </g>
    <g id="xtick_6">
     <g id="line2d_11">
      <path d="M 444.125797 384.48 
L 444.125797 51.84 
" clip-path="url(#p280dde0175)" style="fill: none; stroke: #b0b0b0; stroke-opacity: 0.2; stroke-width: 0.8; stroke-linecap: square"/>
     </g>
     <g id="line2d_12">
      <g>
       <use xlink:href="#m17e939cd44" x="444.125797" y="394.48" style="stroke: #000000; stroke-width: 0.1"/>
      </g>
     </g>
     <g id="text_6">
      <!-- 2.5 -->
      <g transform="translate(432.675547 409.02175) scale(0.144 -0.144)">
       <use xlink:href="#DejaVuSans-32"/>
       <use xlink:href="#DejaVuSans-2e" x="63.623047"/>
       <use xlink:href="#DejaVuSans-35" x="95.410156"/>
      </g>
     </g>
    </g>
    <g id="xtick_7">
     <g id="line2d_13">
      <path d="M 514.492775 384.48 
L 514.492775 51.84 
" clip-path="url(#p280dde0175)" style="fill: none; stroke: #b0b0b0; stroke-opacity: 0.2; stroke-width: 0.8; stroke-linecap: square"/>
     </g>
     <g id="line2d_14">
      <g>
       <use xlink:href="#m17e939cd44" x="514.492775" y="394.48" style="stroke: #000000; stroke-width: 0.1"/>
      </g>
     </g>
     <g id="text_7">
      <!-- 3.0 -->
      <g transform="translate(503.042525 409.02175) scale(0.144 -0.144)">
       <defs>
        <path id="DejaVuSans-33" d="M 2597 2516 
Q 3050 2419 3304 2112 
Q 3559 1806 3559 1356 
Q 3559 666 3084 287 
Q 2609 -91 1734 -91 
Q 1441 -91 1130 -33 
Q 819 25 488 141 
L 488 750 
Q 750 597 1062 519 
Q 1375 441 1716 441 
Q 2309 441 2620 675 
Q 2931 909 2931 1356 
Q 2931 1769 2642 2001 
Q 2353 2234 1838 2234 
L 1294 2234 
L 1294 2753 
L 1863 2753 
Q 2328 2753 2575 2939 
Q 2822 3125 2822 3475 
Q 2822 3834 2567 4026 
Q 2313 4219 1838 4219 
Q 1578 4219 1281 4162 
Q 984 4106 628 3988 
L 628 4550 
Q 988 4650 1302 4700 
Q 1616 4750 1894 4750 
Q 2613 4750 3031 4423 
Q 3450 4097 3450 3541 
Q 3450 3153 3228 2886 
Q 3006 2619 2597 2516 
z
" transform="scale(0.015625)"/>
       </defs>
       <use xlink:href="#DejaVuSans-33"/>
       <use xlink:href="#DejaVuSans-2e" x="63.623047"/>
       <use xlink:href="#DejaVuSans-30" x="95.410156"/>
      </g>
     </g>
    </g>
    <g id="text_8">
     <!-- # Env Steps -->
     <g transform="translate(251.07075 426.95825) scale(0.144 -0.144)">
      <defs>
       <path id="DejaVuSans-23" d="M 3272 2816 
L 2363 2816 
L 2100 1772 
L 3016 1772 
L 3272 2816 
z
M 2803 4594 
L 2478 3297 
L 3391 3297 
L 3719 4594 
L 4219 4594 
L 3897 3297 
L 4872 3297 
L 4872 2816 
L 3775 2816 
L 3519 1772 
L 4513 1772 
L 4513 1294 
L 3397 1294 
L 3072 0 
L 2572 0 
L 2894 1294 
L 1978 1294 
L 1656 0 
L 1153 0 
L 1478 1294 
L 494 1294 
L 494 1772 
L 1594 1772 
L 1856 2816 
L 850 2816 
L 850 3297 
L 1978 3297 
L 2297 4594 
L 2803 4594 
z
" transform="scale(0.015625)"/>
       <path id="DejaVuSans-20" transform="scale(0.015625)"/>
       <path id="DejaVuSans-45" d="M 628 4666 
L 3578 4666 
L 3578 4134 
L 1259 4134 
L 1259 2753 
L 3481 2753 
L 3481 2222 
L 1259 2222 
L 1259 531 
L 3634 531 
L 3634 0 
L 628 0 
L 628 4666 
z
" transform="scale(0.015625)"/>
       <path id="DejaVuSans-6e" d="M 3513 2113 
L 3513 0 
L 2938 0 
L 2938 2094 
Q 2938 2591 2744 2837 
Q 2550 3084 2163 3084 
Q 1697 3084 1428 2787 
Q 1159 2491 1159 1978 
L 1159 0 
L 581 0 
L 581 3500 
L 1159 3500 
L 1159 2956 
Q 1366 3272 1645 3428 
Q 1925 3584 2291 3584 
Q 2894 3584 3203 3211 
Q 3513 2838 3513 2113 
z
" transform="scale(0.015625)"/>
       <path id="DejaVuSans-76" d="M 191 3500 
L 800 3500 
L 1894 563 
L 2988 3500 
L 3597 3500 
L 2284 0 
L 1503 0 
L 191 3500 
z
" transform="scale(0.015625)"/>
       <path id="DejaVuSans-53" d="M 3425 4513 
L 3425 3897 
Q 3066 4069 2747 4153 
Q 2428 4238 2131 4238 
Q 1616 4238 1336 4038 
Q 1056 3838 1056 3469 
Q 1056 3159 1242 3001 
Q 1428 2844 1947 2747 
L 2328 2669 
Q 3034 2534 3370 2195 
Q 3706 1856 3706 1288 
Q 3706 609 3251 259 
Q 2797 -91 1919 -91 
Q 1588 -91 1214 -16 
Q 841 59 441 206 
L 441 856 
Q 825 641 1194 531 
Q 1563 422 1919 422 
Q 2459 422 2753 634 
Q 3047 847 3047 1241 
Q 3047 1584 2836 1778 
Q 2625 1972 2144 2069 
L 1759 2144 
Q 1053 2284 737 2584 
Q 422 2884 422 3419 
Q 422 4038 858 4394 
Q 1294 4750 2059 4750 
Q 2388 4750 2728 4690 
Q 3069 4631 3425 4513 
z
" transform="scale(0.015625)"/>
       <path id="DejaVuSans-74" d="M 1172 4494 
L 1172 3500 
L 2356 3500 
L 2356 3053 
L 1172 3053 
L 1172 1153 
Q 1172 725 1289 603 
Q 1406 481 1766 481 
L 2356 481 
L 2356 0 
L 1766 0 
Q 1100 0 847 248 
Q 594 497 594 1153 
L 594 3053 
L 172 3053 
L 172 3500 
L 594 3500 
L 594 4494 
L 1172 4494 
z
" transform="scale(0.015625)"/>
       <path id="DejaVuSans-65" d="M 3597 1894 
L 3597 1613 
L 953 1613 
Q 991 1019 1311 708 
Q 1631 397 2203 397 
Q 2534 397 2845 478 
Q 3156 559 3463 722 
L 3463 178 
Q 3153 47 2828 -22 
Q 2503 -91 2169 -91 
Q 1331 -91 842 396 
Q 353 884 353 1716 
Q 353 2575 817 3079 
Q 1281 3584 2069 3584 
Q 2775 3584 3186 3129 
Q 3597 2675 3597 1894 
z
M 3022 2063 
Q 3016 2534 2758 2815 
Q 2500 3097 2075 3097 
Q 1594 3097 1305 2825 
Q 1016 2553 972 2059 
L 3022 2063 
z
" transform="scale(0.015625)"/>
       <path id="DejaVuSans-70" d="M 1159 525 
L 1159 -1331 
L 581 -1331 
L 581 3500 
L 1159 3500 
L 1159 2969 
Q 1341 3281 1617 3432 
Q 1894 3584 2278 3584 
Q 2916 3584 3314 3078 
Q 3713 2572 3713 1747 
Q 3713 922 3314 415 
Q 2916 -91 2278 -91 
Q 1894 -91 1617 61 
Q 1341 213 1159 525 
z
M 3116 1747 
Q 3116 2381 2855 2742 
Q 2594 3103 2138 3103 
Q 1681 3103 1420 2742 
Q 1159 2381 1159 1747 
Q 1159 1113 1420 752 
Q 1681 391 2138 391 
Q 2594 391 2855 752 
Q 3116 1113 3116 1747 
z
" transform="scale(0.015625)"/>
       <path id="DejaVuSans-73" d="M 2834 3397 
L 2834 2853 
Q 2591 2978 2328 3040 
Q 2066 3103 1784 3103 
Q 1356 3103 1142 2972 
Q 928 2841 928 2578 
Q 928 2378 1081 2264 
Q 1234 2150 1697 2047 
L 1894 2003 
Q 2506 1872 2764 1633 
Q 3022 1394 3022 966 
Q 3022 478 2636 193 
Q 2250 -91 1575 -91 
Q 1294 -91 989 -36 
Q 684 19 347 128 
L 347 722 
Q 666 556 975 473 
Q 1284 391 1588 391 
Q 1994 391 2212 530 
Q 2431 669 2431 922 
Q 2431 1156 2273 1281 
Q 2116 1406 1581 1522 
L 1381 1569 
Q 847 1681 609 1914 
Q 372 2147 372 2553 
Q 372 3047 722 3315 
Q 1072 3584 1716 3584 
Q 2034 3584 2315 3537 
Q 2597 3491 2834 3397 
z
" transform="scale(0.015625)"/>
      </defs>
      <use xlink:href="#DejaVuSans-23"/>
      <use xlink:href="#DejaVuSans-20" x="83.789062"/>
      <use xlink:href="#DejaVuSans-45" x="115.576172"/>
      <use xlink:href="#DejaVuSans-6e" x="178.759766"/>
      <use xlink:href="#DejaVuSans-76" x="242.138672"/>
      <use xlink:href="#DejaVuSans-20" x="301.318359"/>
      <use xlink:href="#DejaVuSans-53" x="333.105469"/>
      <use xlink:href="#DejaVuSans-74" x="396.582031"/>
      <use xlink:href="#DejaVuSans-65" x="435.791016"/>
      <use xlink:href="#DejaVuSans-70" x="497.314453"/>
      <use xlink:href="#DejaVuSans-73" x="560.791016"/>
     </g>
    </g>
    <g id="text_9">
     <!-- 1e8 -->
     <g transform="translate(499.521875 422.614937) scale(0.1 -0.1)">
      <defs>
       <path id="DejaVuSans-38" d="M 2034 2216 
Q 1584 2216 1326 1975 
Q 1069 1734 1069 1313 
Q 1069 891 1326 650 
Q 1584 409 2034 409 
Q 2484 409 2743 651 
Q 3003 894 3003 1313 
Q 3003 1734 2745 1975 
Q 2488 2216 2034 2216 
z
M 1403 2484 
Q 997 2584 770 2862 
Q 544 3141 544 3541 
Q 544 4100 942 4425 
Q 1341 4750 2034 4750 
Q 2731 4750 3128 4425 
Q 3525 4100 3525 3541 
Q 3525 3141 3298 2862 
Q 3072 2584 2669 2484 
Q 3125 2378 3379 2068 
Q 3634 1759 3634 1313 
Q 3634 634 3220 271 
Q 2806 -91 2034 -91 
Q 1263 -91 848 271 
Q 434 634 434 1313 
Q 434 1759 690 2068 
Q 947 2378 1403 2484 
z
M 1172 3481 
Q 1172 3119 1398 2916 
Q 1625 2713 2034 2713 
Q 2441 2713 2670 2916 
Q 2900 3119 2900 3481 
Q 2900 3844 2670 4047 
Q 2441 4250 2034 4250 
Q 1625 4250 1398 4047 
Q 1172 3844 1172 3481 
z
" transform="scale(0.015625)"/>
      </defs>
      <use xlink:href="#DejaVuSans-31"/>
      <use xlink:href="#DejaVuSans-65" x="63.623047"/>
      <use xlink:href="#DejaVuSans-38" x="125.146484"/>
     </g>
    </g>
   </g>
   <g id="matplotlib.axis_2">
    <g id="ytick_1">
     <g id="line2d_15">
      <path d="M 72 369.36 
L 518.4 369.36 
" clip-path="url(#p280dde0175)" style="fill: none; stroke: #b0b0b0; stroke-opacity: 0.2; stroke-width: 0.8; stroke-linecap: square"/>
     </g>
     <g id="line2d_16">
      <defs>
       <path id="m8b3506c3e2" d="M 0 0 
L -0.1 0 
" style="stroke: #000000; stroke-width: 0.1"/>
      </defs>
      <g>
       <use xlink:href="#m8b3506c3e2" x="62" y="369.36" style="stroke: #000000; stroke-width: 0.1"/>
      </g>
     </g>
     <g id="text_10">
      <!-- 0.0 -->
      <g transform="translate(35.4995 374.830875) scale(0.144 -0.144)">
       <use xlink:href="#DejaVuSans-30"/>
       <use xlink:href="#DejaVuSans-2e" x="63.623047"/>
       <use xlink:href="#DejaVuSans-30" x="95.410156"/>
      </g>
     </g>
    </g>
    <g id="ytick_2">
     <g id="line2d_17">
      <path d="M 72 306.596856 
L 518.4 306.596856 
" clip-path="url(#p280dde0175)" style="fill: none; stroke: #b0b0b0; stroke-opacity: 0.2; stroke-width: 0.8; stroke-linecap: square"/>
     </g>
     <g id="line2d_18">
      <g>
       <use xlink:href="#m8b3506c3e2" x="62" y="306.596856" style="stroke: #000000; stroke-width: 0.1"/>
      </g>
     </g>
     <g id="text_11">
      <!-- 0.2 -->
      <g transform="translate(35.4995 312.067731) scale(0.144 -0.144)">
       <use xlink:href="#DejaVuSans-30"/>
       <use xlink:href="#DejaVuSans-2e" x="63.623047"/>
       <use xlink:href="#DejaVuSans-32" x="95.410156"/>
      </g>
     </g>
    </g>
    <g id="ytick_3">
     <g id="line2d_19">
      <path d="M 72 243.833713 
L 518.4 243.833713 
" clip-path="url(#p280dde0175)" style="fill: none; stroke: #b0b0b0; stroke-opacity: 0.2; stroke-width: 0.8; stroke-linecap: square"/>
     </g>
     <g id="line2d_20">
      <g>
       <use xlink:href="#m8b3506c3e2" x="62" y="243.833713" style="stroke: #000000; stroke-width: 0.1"/>
      </g>
     </g>
     <g id="text_12">
      <!-- 0.4 -->
      <g transform="translate(35.4995 249.304588) scale(0.144 -0.144)">
       <defs>
        <path id="DejaVuSans-34" d="M 2419 4116 
L 825 1625 
L 2419 1625 
L 2419 4116 
z
M 2253 4666 
L 3047 4666 
L 3047 1625 
L 3713 1625 
L 3713 1100 
L 3047 1100 
L 3047 0 
L 2419 0 
L 2419 1100 
L 313 1100 
L 313 1709 
L 2253 4666 
z
" transform="scale(0.015625)"/>
       </defs>
       <use xlink:href="#DejaVuSans-30"/>
       <use xlink:href="#DejaVuSans-2e" x="63.623047"/>
       <use xlink:href="#DejaVuSans-34" x="95.410156"/>
      </g>
     </g>
    </g>
    <g id="ytick_4">
     <g id="line2d_21">
      <path d="M 72 181.070569 
L 518.4 181.070569 
" clip-path="url(#p280dde0175)" style="fill: none; stroke: #b0b0b0; stroke-opacity: 0.2; stroke-width: 0.8; stroke-linecap: square"/>
     </g>
     <g id="line2d_22">
      <g>
       <use xlink:href="#m8b3506c3e2" x="62" y="181.070569" style="stroke: #000000; stroke-width: 0.1"/>
      </g>
     </g>
     <g id="text_13">
      <!-- 0.6 -->
      <g transform="translate(35.4995 186.541444) scale(0.144 -0.144)">
       <defs>
        <path id="DejaVuSans-36" d="M 2113 2584 
Q 1688 2584 1439 2293 
Q 1191 2003 1191 1497 
Q 1191 994 1439 701 
Q 1688 409 2113 409 
Q 2538 409 2786 701 
Q 3034 994 3034 1497 
Q 3034 2003 2786 2293 
Q 2538 2584 2113 2584 
z
M 3366 4563 
L 3366 3988 
Q 3128 4100 2886 4159 
Q 2644 4219 2406 4219 
Q 1781 4219 1451 3797 
Q 1122 3375 1075 2522 
Q 1259 2794 1537 2939 
Q 1816 3084 2150 3084 
Q 2853 3084 3261 2657 
Q 3669 2231 3669 1497 
Q 3669 778 3244 343 
Q 2819 -91 2113 -91 
Q 1303 -91 875 529 
Q 447 1150 447 2328 
Q 447 3434 972 4092 
Q 1497 4750 2381 4750 
Q 2619 4750 2861 4703 
Q 3103 4656 3366 4563 
z
" transform="scale(0.015625)"/>
       </defs>
       <use xlink:href="#DejaVuSans-30"/>
       <use xlink:href="#DejaVuSans-2e" x="63.623047"/>
       <use xlink:href="#DejaVuSans-36" x="95.410156"/>
      </g>
     </g>
    </g>
    <g id="ytick_5">
     <g id="line2d_23">
      <path d="M 72 118.307426 
L 518.4 118.307426 
" clip-path="url(#p280dde0175)" style="fill: none; stroke: #b0b0b0; stroke-opacity: 0.2; stroke-width: 0.8; stroke-linecap: square"/>
     </g>
     <g id="line2d_24">
      <g>
       <use xlink:href="#m8b3506c3e2" x="62" y="118.307426" style="stroke: #000000; stroke-width: 0.1"/>
      </g>
     </g>
     <g id="text_14">
      <!-- 0.8 -->
      <g transform="translate(35.4995 123.778301) scale(0.144 -0.144)">
       <use xlink:href="#DejaVuSans-30"/>
       <use xlink:href="#DejaVuSans-2e" x="63.623047"/>
       <use xlink:href="#DejaVuSans-38" x="95.410156"/>
      </g>
     </g>
    </g>
    <g id="ytick_6">
     <g id="line2d_25">
      <path d="M 72 55.544282 
L 518.4 55.544282 
" clip-path="url(#p280dde0175)" style="fill: none; stroke: #b0b0b0; stroke-opacity: 0.2; stroke-width: 0.8; stroke-linecap: square"/>
     </g>
     <g id="line2d_26">
      <g>
       <use xlink:href="#m8b3506c3e2" x="62" y="55.544282" style="stroke: #000000; stroke-width: 0.1"/>
      </g>
     </g>
     <g id="text_15">
      <!-- 1.0 -->
      <g transform="translate(35.4995 61.015157) scale(0.144 -0.144)">
       <use xlink:href="#DejaVuSans-31"/>
       <use xlink:href="#DejaVuSans-2e" x="63.623047"/>
       <use xlink:href="#DejaVuSans-30" x="95.410156"/>
      </g>
     </g>
    </g>
    <g id="text_16">
     <!-- Mean Return on Evaluation Set -->
     <g transform="translate(28.50475 329.60475) rotate(-90) scale(0.144 -0.144)">
      <defs>
       <path id="DejaVuSans-4d" d="M 628 4666 
L 1569 4666 
L 2759 1491 
L 3956 4666 
L 4897 4666 
L 4897 0 
L 4281 0 
L 4281 4097 
L 3078 897 
L 2444 897 
L 1241 4097 
L 1241 0 
L 628 0 
L 628 4666 
z
" transform="scale(0.015625)"/>
       <path id="DejaVuSans-61" d="M 2194 1759 
Q 1497 1759 1228 1600 
Q 959 1441 959 1056 
Q 959 750 1161 570 
Q 1363 391 1709 391 
Q 2188 391 2477 730 
Q 2766 1069 2766 1631 
L 2766 1759 
L 2194 1759 
z
M 3341 1997 
L 3341 0 
L 2766 0 
L 2766 531 
Q 2569 213 2275 61 
Q 1981 -91 1556 -91 
Q 1019 -91 701 211 
Q 384 513 384 1019 
Q 384 1609 779 1909 
Q 1175 2209 1959 2209 
L 2766 2209 
L 2766 2266 
Q 2766 2663 2505 2880 
Q 2244 3097 1772 3097 
Q 1472 3097 1187 3025 
Q 903 2953 641 2809 
L 641 3341 
Q 956 3463 1253 3523 
Q 1550 3584 1831 3584 
Q 2591 3584 2966 3190 
Q 3341 2797 3341 1997 
z
" transform="scale(0.015625)"/>
       <path id="DejaVuSans-52" d="M 2841 2188 
Q 3044 2119 3236 1894 
Q 3428 1669 3622 1275 
L 4263 0 
L 3584 0 
L 2988 1197 
Q 2756 1666 2539 1819 
Q 2322 1972 1947 1972 
L 1259 1972 
L 1259 0 
L 628 0 
L 628 4666 
L 2053 4666 
Q 2853 4666 3247 4331 
Q 3641 3997 3641 3322 
Q 3641 2881 3436 2590 
Q 3231 2300 2841 2188 
z
M 1259 4147 
L 1259 2491 
L 2053 2491 
Q 2509 2491 2742 2702 
Q 2975 2913 2975 3322 
Q 2975 3731 2742 3939 
Q 2509 4147 2053 4147 
L 1259 4147 
z
" transform="scale(0.015625)"/>
       <path id="DejaVuSans-75" d="M 544 1381 
L 544 3500 
L 1119 3500 
L 1119 1403 
Q 1119 906 1312 657 
Q 1506 409 1894 409 
Q 2359 409 2629 706 
Q 2900 1003 2900 1516 
L 2900 3500 
L 3475 3500 
L 3475 0 
L 2900 0 
L 2900 538 
Q 2691 219 2414 64 
Q 2138 -91 1772 -91 
Q 1169 -91 856 284 
Q 544 659 544 1381 
z
M 1991 3584 
L 1991 3584 
z
" transform="scale(0.015625)"/>
       <path id="DejaVuSans-72" d="M 2631 2963 
Q 2534 3019 2420 3045 
Q 2306 3072 2169 3072 
Q 1681 3072 1420 2755 
Q 1159 2438 1159 1844 
L 1159 0 
L 581 0 
L 581 3500 
L 1159 3500 
L 1159 2956 
Q 1341 3275 1631 3429 
Q 1922 3584 2338 3584 
Q 2397 3584 2469 3576 
Q 2541 3569 2628 3553 
L 2631 2963 
z
" transform="scale(0.015625)"/>
       <path id="DejaVuSans-6f" d="M 1959 3097 
Q 1497 3097 1228 2736 
Q 959 2375 959 1747 
Q 959 1119 1226 758 
Q 1494 397 1959 397 
Q 2419 397 2687 759 
Q 2956 1122 2956 1747 
Q 2956 2369 2687 2733 
Q 2419 3097 1959 3097 
z
M 1959 3584 
Q 2709 3584 3137 3096 
Q 3566 2609 3566 1747 
Q 3566 888 3137 398 
Q 2709 -91 1959 -91 
Q 1206 -91 779 398 
Q 353 888 353 1747 
Q 353 2609 779 3096 
Q 1206 3584 1959 3584 
z
" transform="scale(0.015625)"/>
       <path id="DejaVuSans-6c" d="M 603 4863 
L 1178 4863 
L 1178 0 
L 603 0 
L 603 4863 
z
" transform="scale(0.015625)"/>
       <path id="DejaVuSans-69" d="M 603 3500 
L 1178 3500 
L 1178 0 
L 603 0 
L 603 3500 
z
M 603 4863 
L 1178 4863 
L 1178 4134 
L 603 4134 
L 603 4863 
z
" transform="scale(0.015625)"/>
      </defs>
      <use xlink:href="#DejaVuSans-4d"/>
      <use xlink:href="#DejaVuSans-65" x="86.279297"/>
      <use xlink:href="#DejaVuSans-61" x="147.802734"/>
      <use xlink:href="#DejaVuSans-6e" x="209.082031"/>
      <use xlink:href="#DejaVuSans-20" x="272.460938"/>
      <use xlink:href="#DejaVuSans-52" x="304.248047"/>
      <use xlink:href="#DejaVuSans-65" x="369.230469"/>
      <use xlink:href="#DejaVuSans-74" x="430.753906"/>
      <use xlink:href="#DejaVuSans-75" x="469.962891"/>
      <use xlink:href="#DejaVuSans-72" x="533.341797"/>
      <use xlink:href="#DejaVuSans-6e" x="572.705078"/>
      <use xlink:href="#DejaVuSans-20" x="636.083984"/>
      <use xlink:href="#DejaVuSans-6f" x="667.871094"/>
      <use xlink:href="#DejaVuSans-6e" x="729.052734"/>
      <use xlink:href="#DejaVuSans-20" x="792.431641"/>
      <use xlink:href="#DejaVuSans-45" x="824.21875"/>
      <use xlink:href="#DejaVuSans-76" x="887.402344"/>
      <use xlink:href="#DejaVuSans-61" x="946.582031"/>
      <use xlink:href="#DejaVuSans-6c" x="1007.861328"/>
      <use xlink:href="#DejaVuSans-75" x="1035.644531"/>
      <use xlink:href="#DejaVuSans-61" x="1099.023438"/>
      <use xlink:href="#DejaVuSans-74" x="1160.302734"/>
      <use xlink:href="#DejaVuSans-69" x="1199.511719"/>
      <use xlink:href="#DejaVuSans-6f" x="1227.294922"/>
      <use xlink:href="#DejaVuSans-6e" x="1288.476562"/>
      <use xlink:href="#DejaVuSans-20" x="1351.855469"/>
      <use xlink:href="#DejaVuSans-53" x="1383.642578"/>
      <use xlink:href="#DejaVuSans-65" x="1447.119141"/>
      <use xlink:href="#DejaVuSans-74" x="1508.642578"/>
     </g>
    </g>
   </g>
   <g id="line2d_27">
    <path d="M 92.290909 369.36 
L 101.51405 366.221843 
L 110.73719 364.652764 
L 119.960331 355.238292 
L 129.183471 351.315596 
L 138.406612 345.039281 
L 147.629752 338.762967 
L 156.852893 303.458698 
L 166.076033 257.17088 
L 175.299174 233.634699 
L 184.522314 188.915958 
L 193.745455 189.7005 
L 202.968595 204.60675 
L 212.191736 170.871559 
L 221.414876 125.368277 
L 230.638017 151.258071 
L 239.861157 131.644592 
L 249.084298 152.827153 
L 258.307438 171.656094 
L 267.530579 136.351827 
L 276.753719 139.489989 
L 285.97686 146.550836 
L 295.2 161.457085 
L 304.42314 123.799197 
L 313.646281 123.799204 
L 322.869421 108.108417 
L 332.092562 135.567287 
L 341.315702 137.920908 
L 350.538843 134.78275 
L 359.761983 137.92091 
L 368.985124 145.766301 
L 378.208264 120.661041 
L 387.431405 134.782756 
L 396.654545 128.506436 
L 405.877686 135.567289 
L 415.100826 133.998212 
L 424.323967 146.550841 
L 433.547107 146.55084 
L 442.770248 148.11992 
L 451.993388 138.705449 
L 461.216529 137.92091 
L 470.439669 143.41268 
L 479.66281 143.412685 
L 488.88595 147.335376 
L 498.109091 152.827154 
" clip-path="url(#p280dde0175)" style="fill: none; stroke: #b253e6; stroke-width: 1.5; stroke-linecap: square"/>
   </g>
   <g id="line2d_28">
    <path d="M 92.290909 358.37645 
L 101.51405 318.364944 
L 110.73719 249.325485 
L 119.960331 225.789306 
L 129.183471 195.58454 
L 138.406612 187.346879 
L 147.629752 189.308225 
L 156.852893 196.369083 
L 166.076033 147.33538 
L 175.299174 141.451332 
L 184.522314 142.23587 
L 193.745455 157.926658 
L 202.968595 125.368276 
L 212.191736 166.556592 
L 221.414876 150.081265 
L 230.638017 163.026161 
L 239.861157 141.843603 
L 249.084298 147.727647 
L 258.307438 142.628141 
L 267.530579 132.429134 
L 276.753719 109.677492 
L 285.97686 93.986707 
L 295.2 104.185719 
L 304.42314 100.655292 
L 313.646281 98.30167 
L 322.869421 106.931606 
L 332.092562 109.285221 
L 341.315702 115.561539 
L 350.538843 99.47848 
L 359.761983 108.892954 
L 368.985124 98.693942 
L 378.208264 118.307426 
L 387.431405 103.79345 
L 396.654545 108.892952 
L 405.877686 86.925852 
L 415.100826 88.887202 
L 424.323967 90.848549 
L 433.547107 84.572235 
L 442.770248 89.27947 
L 451.993388 91.633089 
L 461.216529 93.594437 
L 470.439669 88.102662 
L 479.66281 80.257269 
L 488.88595 86.925852 
L 498.109091 78.295923 
" clip-path="url(#p280dde0175)" style="fill: none; stroke: #d55e00; stroke-width: 1.5; stroke-linecap: square"/>
   </g>
   <g id="line2d_29">
    <path d="M 92.290909 368.183191 
L 101.51405 361.514607 
L 110.73719 308.950473 
L 119.960331 268.154428 
L 129.183471 204.60675 
L 138.406612 161.849352 
L 147.629752 181.070565 
L 156.852893 148.904456 
L 166.076033 167.341127 
L 175.299174 208.529442 
L 184.522314 167.341128 
L 193.745455 196.369084 
L 202.968595 156.357575 
L 212.191736 177.932409 
L 221.414876 130.07551 
L 230.638017 114.384726 
L 239.861157 112.031109 
L 249.084298 118.30742 
L 258.307438 112.815647 
L 267.530579 115.953803 
L 276.753719 132.036859 
L 285.97686 146.158565 
L 295.2 119.8765 
L 304.42314 115.561535 
L 313.646281 100.263019 
L 322.869421 135.175014 
L 332.092562 130.467779 
L 341.315702 117.915155 
L 350.538843 105.754794 
L 359.761983 121.44558 
L 368.985124 104.577983 
L 378.208264 101.047557 
L 387.431405 100.263015 
L 396.654545 90.064012 
L 405.877686 109.677487 
L 415.100826 121.445578 
L 424.323967 81.826346 
L 433.547107 82.218613 
L 442.770248 99.478478 
L 451.993388 88.102662 
L 461.216529 83.003156 
L 470.439669 85.356768 
L 479.66281 92.025358 
L 488.88595 83.395425 
L 498.109091 74.765495 
" clip-path="url(#p280dde0175)" style="fill: none; stroke: #cc78bc; stroke-width: 1.5; stroke-linecap: square"/>
   </g>
   <g id="patch_3">
    <path d="M 62 384.48 
L 62 51.84 
" style="fill: none; stroke: #000000; stroke-width: 2; stroke-linejoin: miter; stroke-linecap: square"/>
   </g>
   <g id="patch_4">
    <path d="M 72 394.48 
L 518.4 394.48 
" style="fill: none; stroke: #000000; stroke-width: 2; stroke-linejoin: miter; stroke-linecap: square"/>
   </g>
   <g id="legend_1">
    <g id="patch_5">
     <path d="M 376.74 377.28 
L 508.32 377.28 
Q 511.2 377.28 511.2 374.4 
L 511.2 312.318 
Q 511.2 309.438 508.32 309.438 
L 376.74 309.438 
Q 373.86 309.438 373.86 312.318 
L 373.86 374.4 
Q 373.86 377.28 376.74 377.28 
z
" style="fill: #ffffff; opacity: 0.8; stroke: #cccccc; stroke-linejoin: miter"/>
    </g>
    <g id="line2d_30">
     <path d="M 379.62 321.09975 
L 394.02 321.09975 
L 408.42 321.09975 
" style="fill: none; stroke: #b253e6; stroke-width: 1.5; stroke-linecap: square"/>
    </g>
    <g id="text_17">
     <!-- NCC-T -->
     <g transform="translate(419.94 326.13975) scale(0.144 -0.144)">
      <defs>
       <path id="DejaVuSans-Bold-4e" d="M 588 4666 
L 1931 4666 
L 3628 1466 
L 3628 4666 
L 4769 4666 
L 4769 0 
L 3425 0 
L 1728 3200 
L 1728 0 
L 588 0 
L 588 4666 
z
" transform="scale(0.015625)"/>
       <path id="DejaVuSans-Bold-43" d="M 4288 256 
Q 3956 84 3597 -3 
Q 3238 -91 2847 -91 
Q 1681 -91 1000 561 
Q 319 1213 319 2328 
Q 319 3447 1000 4098 
Q 1681 4750 2847 4750 
Q 3238 4750 3597 4662 
Q 3956 4575 4288 4403 
L 4288 3438 
Q 3953 3666 3628 3772 
Q 3303 3878 2944 3878 
Q 2300 3878 1931 3465 
Q 1563 3053 1563 2328 
Q 1563 1606 1931 1193 
Q 2300 781 2944 781 
Q 3303 781 3628 887 
Q 3953 994 4288 1222 
L 4288 256 
z
" transform="scale(0.015625)"/>
       <path id="DejaVuSans-Bold-2d" d="M 347 2297 
L 2309 2297 
L 2309 1388 
L 347 1388 
L 347 2297 
z
" transform="scale(0.015625)"/>
       <path id="DejaVuSans-Bold-54" d="M 31 4666 
L 4331 4666 
L 4331 3756 
L 2784 3756 
L 2784 0 
L 1581 0 
L 1581 3756 
L 31 3756 
L 31 4666 
z
" transform="scale(0.015625)"/>
      </defs>
      <use xlink:href="#DejaVuSans-Bold-4e"/>
      <use xlink:href="#DejaVuSans-Bold-43" x="83.691406"/>
      <use xlink:href="#DejaVuSans-Bold-43" x="157.080078"/>
      <use xlink:href="#DejaVuSans-Bold-2d" x="232.71875"/>
      <use xlink:href="#DejaVuSans-Bold-54" x="259.472656"/>
     </g>
    </g>
    <g id="line2d_31">
     <path d="M 379.62 342.23625 
L 394.02 342.23625 
L 408.42 342.23625 
" style="fill: none; stroke: #d55e00; stroke-width: 1.5; stroke-linecap: square"/>
    </g>
    <g id="text_18">
     <!-- NCC-Learn -->
     <g transform="translate(419.94 347.27625) scale(0.144 -0.144)">
      <defs>
       <path id="DejaVuSans-Bold-4c" d="M 588 4666 
L 1791 4666 
L 1791 909 
L 3903 909 
L 3903 0 
L 588 0 
L 588 4666 
z
" transform="scale(0.015625)"/>
       <path id="DejaVuSans-Bold-65" d="M 4031 1759 
L 4031 1441 
L 1416 1441 
Q 1456 1047 1700 850 
Q 1944 653 2381 653 
Q 2734 653 3104 758 
Q 3475 863 3866 1075 
L 3866 213 
Q 3469 63 3072 -14 
Q 2675 -91 2278 -91 
Q 1328 -91 801 392 
Q 275 875 275 1747 
Q 275 2603 792 3093 
Q 1309 3584 2216 3584 
Q 3041 3584 3536 3087 
Q 4031 2591 4031 1759 
z
M 2881 2131 
Q 2881 2450 2695 2645 
Q 2509 2841 2209 2841 
Q 1884 2841 1681 2658 
Q 1478 2475 1428 2131 
L 2881 2131 
z
" transform="scale(0.015625)"/>
       <path id="DejaVuSans-Bold-61" d="M 2106 1575 
Q 1756 1575 1579 1456 
Q 1403 1338 1403 1106 
Q 1403 894 1545 773 
Q 1688 653 1941 653 
Q 2256 653 2472 879 
Q 2688 1106 2688 1447 
L 2688 1575 
L 2106 1575 
z
M 3816 1997 
L 3816 0 
L 2688 0 
L 2688 519 
Q 2463 200 2181 54 
Q 1900 -91 1497 -91 
Q 953 -91 614 226 
Q 275 544 275 1050 
Q 275 1666 698 1953 
Q 1122 2241 2028 2241 
L 2688 2241 
L 2688 2328 
Q 2688 2594 2478 2717 
Q 2269 2841 1825 2841 
Q 1466 2841 1156 2769 
Q 847 2697 581 2553 
L 581 3406 
Q 941 3494 1303 3539 
Q 1666 3584 2028 3584 
Q 2975 3584 3395 3211 
Q 3816 2838 3816 1997 
z
" transform="scale(0.015625)"/>
       <path id="DejaVuSans-Bold-72" d="M 3138 2547 
Q 2991 2616 2845 2648 
Q 2700 2681 2553 2681 
Q 2122 2681 1889 2404 
Q 1656 2128 1656 1613 
L 1656 0 
L 538 0 
L 538 3500 
L 1656 3500 
L 1656 2925 
Q 1872 3269 2151 3426 
Q 2431 3584 2822 3584 
Q 2878 3584 2943 3579 
Q 3009 3575 3134 3559 
L 3138 2547 
z
" transform="scale(0.015625)"/>
       <path id="DejaVuSans-Bold-6e" d="M 4056 2131 
L 4056 0 
L 2931 0 
L 2931 347 
L 2931 1631 
Q 2931 2084 2911 2256 
Q 2891 2428 2841 2509 
Q 2775 2619 2662 2680 
Q 2550 2741 2406 2741 
Q 2056 2741 1856 2470 
Q 1656 2200 1656 1722 
L 1656 0 
L 538 0 
L 538 3500 
L 1656 3500 
L 1656 2988 
Q 1909 3294 2193 3439 
Q 2478 3584 2822 3584 
Q 3428 3584 3742 3212 
Q 4056 2841 4056 2131 
z
" transform="scale(0.015625)"/>
      </defs>
      <use xlink:href="#DejaVuSans-Bold-4e"/>
      <use xlink:href="#DejaVuSans-Bold-43" x="83.691406"/>
      <use xlink:href="#DejaVuSans-Bold-43" x="157.080078"/>
      <use xlink:href="#DejaVuSans-Bold-2d" x="232.71875"/>
      <use xlink:href="#DejaVuSans-Bold-4c" x="274.222656"/>
      <use xlink:href="#DejaVuSans-Bold-65" x="337.943359"/>
      <use xlink:href="#DejaVuSans-Bold-61" x="405.765625"/>
      <use xlink:href="#DejaVuSans-Bold-72" x="473.246094"/>
      <use xlink:href="#DejaVuSans-Bold-6e" x="522.5625"/>
     </g>
    </g>
    <g id="line2d_32">
     <path d="M 379.62 363.37275 
L 394.02 363.37275 
L 408.42 363.37275 
" style="fill: none; stroke: #cc78bc; stroke-width: 1.5; stroke-linecap: square"/>
    </g>
    <g id="text_19">
     <!-- NCC-Reg -->
     <g transform="translate(419.94 368.41275) scale(0.144 -0.144)">
      <defs>
       <path id="DejaVuSans-Bold-52" d="M 2297 2597 
Q 2675 2597 2839 2737 
Q 3003 2878 3003 3200 
Q 3003 3519 2839 3656 
Q 2675 3794 2297 3794 
L 1791 3794 
L 1791 2597 
L 2297 2597 
z
M 1791 1766 
L 1791 0 
L 588 0 
L 588 4666 
L 2425 4666 
Q 3347 4666 3776 4356 
Q 4206 4047 4206 3378 
Q 4206 2916 3982 2619 
Q 3759 2322 3309 2181 
Q 3556 2125 3751 1926 
Q 3947 1728 4147 1325 
L 4800 0 
L 3519 0 
L 2950 1159 
Q 2778 1509 2601 1637 
Q 2425 1766 2131 1766 
L 1791 1766 
z
" transform="scale(0.015625)"/>
       <path id="DejaVuSans-Bold-67" d="M 2919 594 
Q 2688 288 2409 144 
Q 2131 0 1766 0 
Q 1125 0 706 504 
Q 288 1009 288 1791 
Q 288 2575 706 3076 
Q 1125 3578 1766 3578 
Q 2131 3578 2409 3434 
Q 2688 3291 2919 2981 
L 2919 3500 
L 4044 3500 
L 4044 353 
Q 4044 -491 3511 -936 
Q 2978 -1381 1966 -1381 
Q 1638 -1381 1331 -1331 
Q 1025 -1281 716 -1178 
L 716 -306 
Q 1009 -475 1290 -558 
Q 1572 -641 1856 -641 
Q 2406 -641 2662 -400 
Q 2919 -159 2919 353 
L 2919 594 
z
M 2181 2772 
Q 1834 2772 1640 2515 
Q 1447 2259 1447 1791 
Q 1447 1309 1634 1061 
Q 1822 813 2181 813 
Q 2531 813 2725 1069 
Q 2919 1325 2919 1791 
Q 2919 2259 2725 2515 
Q 2531 2772 2181 2772 
z
" transform="scale(0.015625)"/>
      </defs>
      <use xlink:href="#DejaVuSans-Bold-4e"/>
      <use xlink:href="#DejaVuSans-Bold-43" x="83.691406"/>
      <use xlink:href="#DejaVuSans-Bold-43" x="157.080078"/>
      <use xlink:href="#DejaVuSans-Bold-2d" x="232.71875"/>
      <use xlink:href="#DejaVuSans-Bold-52" x="274.222656"/>
      <use xlink:href="#DejaVuSans-Bold-65" x="351.224609"/>
      <use xlink:href="#DejaVuSans-Bold-67" x="419.046875"/>
     </g>
    </g>
   </g>
  </g>
 </g>
 <defs>
  <clipPath id="p280dde0175">
   <rect x="72" y="51.84" width="446.4" height="332.64"/>
  </clipPath>
 </defs>
</svg>
